<svg width="164" height="48" viewBox="0 0 164 48" fill="none" xmlns="http://www.w3.org/2000/svg">
<path d="M1.863 22V5.371H13.2825L13.271 8.2H5.2325V12.2365H12.213V15.008H5.2095V19.1365L13.3975 19.148V22H1.863ZM15.955 22V5.371H19.2785L26.8685 16.3765V5.371H30.2265V22H27.202L19.3015 10.5575V22H15.955ZM40.0987 22.23C38.573 22.23 37.2467 21.885 36.1197 21.195C35.0004 20.4973 34.134 19.5122 33.5207 18.2395C32.915 16.9668 32.6122 15.4642 32.6122 13.7315C32.6122 11.9682 32.9304 10.4463 33.5667 9.166C34.2107 7.878 35.1077 6.88517 36.2577 6.1875C37.4077 5.48983 38.7494 5.141 40.2827 5.141C41.2717 5.141 42.1725 5.29817 42.9852 5.6125C43.7979 5.92683 44.5032 6.35617 45.1012 6.9005C45.7069 7.44483 46.1784 8.062 46.5157 8.752C46.8607 9.43433 47.0485 10.1435 47.0792 10.8795H43.5372C43.4375 10.3505 43.2382 9.8675 42.9392 9.4305C42.6479 8.9935 42.2722 8.64467 41.8122 8.384C41.3522 8.11567 40.8155 7.9815 40.2022 7.9815C39.4662 7.9815 38.7992 8.17317 38.2012 8.5565C37.6032 8.93217 37.1317 9.534 36.7867 10.362C36.4417 11.19 36.2692 12.2825 36.2692 13.6395C36.2692 14.7358 36.3804 15.6482 36.6027 16.3765C36.8327 17.1048 37.1394 17.6837 37.5227 18.113C37.906 18.5347 38.343 18.8337 38.8337 19.01C39.3244 19.1863 39.8265 19.2745 40.3402 19.2745C40.8309 19.2745 41.2679 19.194 41.6512 19.033C42.0422 18.8643 42.3757 18.6497 42.6517 18.389C42.9277 18.1283 43.1462 17.8447 43.3072 17.538C43.4682 17.2237 43.5717 16.917 43.6177 16.618L43.7442 15.606H40.3057V13.283L47.2632 13.3175V22H44.9747V19.8265C44.691 20.2022 44.3384 20.5778 43.9167 20.9535C43.5027 21.3215 42.9852 21.6282 42.3642 21.8735C41.7509 22.1112 40.9957 22.23 40.0987 22.23ZM50.2484 22V5.371H53.6294V19.1595H60.8514V22H50.2484ZM62.9478 22V5.371H66.2943V22H62.9478ZM75.681 22.23C74.853 22.23 74.0441 22.1265 73.2545 21.9195C72.4648 21.7125 71.7441 21.402 71.0925 20.988C70.4408 20.574 69.9041 20.0565 69.4825 19.4355C69.0685 18.8145 68.8193 18.0862 68.735 17.2505H72.1735C72.2885 17.7565 72.507 18.182 72.829 18.527C73.1586 18.872 73.5803 19.1365 74.094 19.3205C74.6153 19.5045 75.2095 19.5965 75.8765 19.5965C76.4055 19.5965 76.9076 19.5198 77.383 19.3665C77.8583 19.2132 78.2455 18.9793 78.5445 18.665C78.8435 18.3507 78.993 17.9558 78.993 17.4805C78.993 16.9132 78.786 16.4877 78.372 16.204C77.958 15.9127 77.3945 15.6827 76.6815 15.514L73.565 14.8355C72.6833 14.6515 71.9128 14.3678 71.2535 13.9845C70.6018 13.5935 70.0996 13.0875 69.747 12.4665C69.3943 11.8378 69.218 11.075 69.218 10.178C69.218 9.143 69.5016 8.24983 70.069 7.4985C70.644 6.74717 71.4221 6.17217 72.4035 5.7735C73.3925 5.36717 74.5003 5.164 75.727 5.164C77.1146 5.164 78.2838 5.39017 79.2345 5.8425C80.1928 6.28717 80.925 6.89283 81.431 7.6595C81.937 8.4185 82.1938 9.26567 82.2015 10.201H78.8435C78.7821 9.626 78.6058 9.166 78.3145 8.821C78.0231 8.46833 77.6475 8.21533 77.1875 8.062C76.7351 7.901 76.2176 7.8205 75.635 7.8205C74.6306 7.8205 73.8985 8.02367 73.4385 8.43C72.9785 8.83633 72.7485 9.30783 72.7485 9.8445C72.7485 10.3505 72.921 10.7607 73.266 11.075C73.6186 11.3817 74.1821 11.6155 74.9565 11.7765L77.843 12.3975C78.9163 12.6045 79.7865 12.9342 80.4535 13.3865C81.1205 13.8312 81.6073 14.3717 81.914 15.008C82.2206 15.6443 82.374 16.3573 82.374 17.147C82.374 18.1513 82.0865 19.0368 81.5115 19.8035C80.9441 20.5625 80.1583 21.1567 79.154 21.586C78.1496 22.0153 76.992 22.23 75.681 22.23ZM84.7753 22V5.371H88.1218V12.041H95.4013V5.371H98.7593V22H95.4013V14.8585H88.1218V22H84.7753Z" fill="#3BA6D2"/>
<path d="M106.513 22V5.371H112.631C113.842 5.371 114.927 5.58183 115.886 6.0035C116.844 6.4175 117.599 7.03083 118.151 7.8435C118.711 8.65617 118.991 9.649 118.991 10.822C118.991 11.926 118.745 12.869 118.255 13.651C117.764 14.433 117.074 15.031 116.185 15.445C115.303 15.859 114.264 16.066 113.068 16.066H109.894V22H106.513ZM109.86 13.467H112.976C113.819 13.467 114.509 13.1987 115.046 12.662C115.583 12.1177 115.851 11.4468 115.851 10.6495C115.851 9.8215 115.567 9.166 115 8.683C114.433 8.19233 113.743 7.947 112.93 7.947H109.86V13.467ZM120.942 22V5.371H124.323V19.1595H131.545V22H120.942ZM139.794 22.23C138.177 22.23 136.881 21.9617 135.907 21.425C134.934 20.8807 134.228 20.1102 133.791 19.1135C133.362 18.1168 133.147 16.9285 133.147 15.5485V5.371H136.563V15.8015C136.563 17.0435 136.862 17.952 137.46 18.527C138.058 19.0943 138.836 19.378 139.794 19.378C140.431 19.378 140.994 19.2553 141.485 19.01C141.975 18.757 142.359 18.3698 142.635 17.8485C142.918 17.3195 143.06 16.6372 143.06 15.8015V5.371H146.453V15.6635C146.453 17.0052 146.234 18.1705 145.797 19.1595C145.36 20.1408 144.651 20.8998 143.67 21.4365C142.696 21.9655 141.404 22.23 139.794 22.23ZM155.449 22.23C154.621 22.23 153.812 22.1265 153.022 21.9195C152.233 21.7125 151.512 21.402 150.86 20.988C150.209 20.574 149.672 20.0565 149.25 19.4355C148.836 18.8145 148.587 18.0862 148.503 17.2505H151.941C152.056 17.7565 152.275 18.182 152.597 18.527C152.926 18.872 153.348 19.1365 153.862 19.3205C154.383 19.5045 154.977 19.5965 155.644 19.5965C156.173 19.5965 156.675 19.5198 157.151 19.3665C157.626 19.2132 158.013 18.9793 158.312 18.665C158.611 18.3507 158.761 17.9558 158.761 17.4805C158.761 16.9132 158.554 16.4877 158.14 16.204C157.726 15.9127 157.162 15.6827 156.449 15.514L153.333 14.8355C152.451 14.6515 151.681 14.3678 151.021 13.9845C150.37 13.5935 149.867 13.0875 149.515 12.4665C149.162 11.8378 148.986 11.075 148.986 10.178C148.986 9.143 149.269 8.24983 149.837 7.4985C150.412 6.74717 151.19 6.17217 152.171 5.7735C153.16 5.36717 154.268 5.164 155.495 5.164C156.882 5.164 158.052 5.39017 159.002 5.8425C159.961 6.28717 160.693 6.89283 161.199 7.6595C161.705 8.4185 161.962 9.26567 161.969 10.201H158.611C158.55 9.626 158.374 9.166 158.082 8.821C157.791 8.46833 157.415 8.21533 156.955 8.062C156.503 7.901 155.985 7.8205 155.403 7.8205C154.398 7.8205 153.666 8.02367 153.206 8.43C152.746 8.83633 152.516 9.30783 152.516 9.8445C152.516 10.3505 152.689 10.7607 153.034 11.075C153.386 11.3817 153.95 11.6155 154.724 11.7765L157.611 12.3975C158.684 12.6045 159.554 12.9342 160.221 13.3865C160.888 13.8312 161.375 14.3717 161.682 15.008C161.988 15.6443 162.142 16.3573 162.142 17.147C162.142 18.1513 161.854 19.0368 161.279 19.8035C160.712 20.5625 159.926 21.1567 158.922 21.586C157.917 22.0153 156.76 22.23 155.449 22.23Z" fill="#B60505"/>
<path d="M3.08594 25V33H1.87891V25H3.08594ZM11.6308 25V33H10.5214L6.455 27.1328H6.38078V33H5.17375V25H6.29094L10.3613 30.875H10.4355V25H11.6308ZM13.327 26.0391V25H19.5184V26.0391H17.0223V33H15.8192V26.0391H13.327ZM21.2166 33V25H26.2322V26.0391H22.4236V28.4766H25.9705V29.5117H22.4236V31.9609H26.2791V33H21.2166ZM28.1745 33V25H31.0261C31.6458 25 32.1602 25.1068 32.569 25.3203C32.9805 25.5339 33.2878 25.8294 33.4909 26.207C33.694 26.582 33.7956 27.0156 33.7956 27.5078C33.7956 27.9974 33.6927 28.4284 33.487 28.8008C33.2839 29.1706 32.9766 29.4583 32.5651 29.6641C32.1563 29.8698 31.6419 29.9727 31.0221 29.9727H28.862V28.9336H30.9128C31.3034 28.9336 31.6211 28.8776 31.8659 28.7656C32.1133 28.6536 32.2943 28.4909 32.4089 28.2773C32.5235 28.0638 32.5807 27.8073 32.5807 27.5078C32.5807 27.2057 32.5221 26.944 32.405 26.7227C32.2904 26.5013 32.1094 26.332 31.862 26.2148C31.6172 26.0951 31.2956 26.0352 30.8971 26.0352H29.3815V33H28.1745ZM32.1237 29.3906L34.1003 33H32.7253L30.7878 29.3906H32.1237ZM42.0514 25V33H40.942L36.8756 27.1328H36.8014V33H35.5943V25H36.7115L40.7818 30.875H40.8561V25H42.0514ZM44.8179 33H43.5366L46.4155 25H47.8101L50.689 33H49.4077L47.146 26.4531H47.0835L44.8179 33ZM45.0327 29.8672H49.189V30.8828H45.0327V29.8672ZM50.8344 26.0391V25H57.0258V26.0391H54.5297V33H53.3266V26.0391H50.8344ZM59.931 25V33H58.724V25H59.931ZM68.968 29C68.968 29.8542 68.8118 30.5885 68.4993 31.2031C68.1868 31.8151 67.7584 32.2865 67.2141 32.6172C66.6725 32.9453 66.0566 33.1094 65.3665 33.1094C64.6738 33.1094 64.0553 32.9453 63.511 32.6172C62.9694 32.2865 62.5423 31.8138 62.2298 31.1992C61.9173 30.5846 61.761 29.8516 61.761 29C61.761 28.1458 61.9173 27.4128 62.2298 26.8008C62.5423 26.1862 62.9694 25.7148 63.511 25.3867C64.0553 25.056 64.6738 24.8906 65.3665 24.8906C66.0566 24.8906 66.6725 25.056 67.2141 25.3867C67.7584 25.7148 68.1868 26.1862 68.4993 26.8008C68.8118 27.4128 68.968 28.1458 68.968 29ZM67.7727 29C67.7727 28.349 67.6673 27.8008 67.4563 27.3555C67.248 26.9076 66.9615 26.569 66.597 26.3398C66.235 26.1081 65.8248 25.9922 65.3665 25.9922C64.9055 25.9922 64.4941 26.1081 64.1321 26.3398C63.7701 26.569 63.4837 26.9076 63.2727 27.3555C63.0644 27.8008 62.9602 28.349 62.9602 29C62.9602 29.651 63.0644 30.2005 63.2727 30.6484C63.4837 31.0937 63.7701 31.4323 64.1321 31.6641C64.4941 31.8932 64.9055 32.0078 65.3665 32.0078C65.8248 32.0078 66.235 31.8932 66.597 31.6641C66.9615 31.4323 67.248 31.0937 67.4563 30.6484C67.6673 30.2005 67.7727 29.651 67.7727 29ZM77.26 25V33H76.1506L72.0842 27.1328H72.01V33H70.8029V25H71.9201L75.9904 30.875H76.0647V25H77.26ZM80.0265 33H78.7452L81.6241 25H83.0187L85.8976 33H84.6163L82.3546 26.4531H82.2921L80.0265 33ZM80.2413 29.8672H84.3976V30.8828H80.2413V29.8672ZM87.3829 33V25H88.5899V31.9609H92.2149V33H87.3829ZM97.163 33V25H102.179V26.0391H98.37V28.4766H101.917V29.5117H98.37V31.9609H102.225V33H97.163ZM106.711 33H104.121V25H106.793C107.577 25 108.25 25.1602 108.812 25.4805C109.375 25.7982 109.806 26.2552 110.105 26.8516C110.407 27.4453 110.558 28.1576 110.558 28.9883C110.558 29.8216 110.406 30.5378 110.101 31.1367C109.799 31.7357 109.362 32.1966 108.789 32.5195C108.216 32.8398 107.523 33 106.711 33ZM105.328 31.9453H106.644C107.254 31.9453 107.76 31.8307 108.164 31.6016C108.568 31.3698 108.87 31.0352 109.07 30.5977C109.271 30.1576 109.371 29.6211 109.371 28.9883C109.371 28.3607 109.271 27.8281 109.07 27.3906C108.872 26.9531 108.577 26.6211 108.183 26.3945C107.79 26.168 107.302 26.0547 106.719 26.0547H105.328V31.9453ZM117.534 25H118.745V30.2617C118.745 30.8216 118.613 31.3177 118.35 31.75C118.087 32.1797 117.717 32.5182 117.241 32.7656C116.764 33.0104 116.206 33.1328 115.565 33.1328C114.927 33.1328 114.37 33.0104 113.893 32.7656C113.417 32.5182 113.047 32.1797 112.784 31.75C112.521 31.3177 112.389 30.8216 112.389 30.2617V25H113.596V30.1641C113.596 30.526 113.676 30.8477 113.835 31.1289C113.996 31.4102 114.224 31.6315 114.518 31.793C114.813 31.9518 115.162 32.0312 115.565 32.0312C115.971 32.0312 116.322 31.9518 116.616 31.793C116.913 31.6315 117.139 31.4102 117.296 31.1289C117.454 30.8477 117.534 30.526 117.534 30.1641V25ZM127.474 27.6016H126.256C126.209 27.3411 126.121 27.112 125.994 26.9141C125.866 26.7161 125.71 26.5482 125.525 26.4102C125.34 26.2721 125.133 26.168 124.904 26.0977C124.677 26.0273 124.436 25.9922 124.181 25.9922C123.72 25.9922 123.308 26.1081 122.943 26.3398C122.581 26.5716 122.295 26.9115 122.084 27.3594C121.875 27.8073 121.771 28.3542 121.771 29C121.771 29.651 121.875 30.2005 122.084 30.6484C122.295 31.0964 122.582 31.4349 122.947 31.6641C123.311 31.8932 123.722 32.0078 124.177 32.0078C124.43 32.0078 124.67 31.974 124.896 31.9062C125.125 31.8359 125.332 31.7331 125.517 31.5977C125.702 31.4622 125.858 31.2969 125.986 31.1016C126.116 30.9036 126.206 30.6771 126.256 30.4219L127.474 30.4258C127.409 30.819 127.283 31.181 127.095 31.5117C126.91 31.8398 126.672 32.1237 126.381 32.3633C126.091 32.6003 125.761 32.7839 125.388 32.9141C125.016 33.0443 124.61 33.1094 124.17 33.1094C123.477 33.1094 122.86 32.9453 122.318 32.6172C121.776 32.2865 121.349 31.8138 121.037 31.1992C120.727 30.5846 120.572 29.8516 120.572 29C120.572 28.1458 120.728 27.4128 121.041 26.8008C121.353 26.1862 121.78 25.7148 122.322 25.3867C122.864 25.056 123.479 24.8906 124.17 24.8906C124.594 24.8906 124.99 24.9518 125.357 25.0742C125.727 25.194 126.059 25.3711 126.353 25.6055C126.647 25.8372 126.891 26.1211 127.084 26.457C127.276 26.7904 127.407 27.1719 127.474 27.6016ZM129.871 33H128.589L131.468 25H132.863L135.742 33H134.461L132.199 26.4531H132.136L129.871 33ZM130.086 29.8672H134.242V30.8828H130.086V29.8672ZM135.887 26.0391V25H142.079V26.0391H139.583V33H138.379V26.0391H135.887ZM144.984 25V33H143.777V25H144.984ZM154.021 29C154.021 29.8542 153.865 30.5885 153.552 31.2031C153.24 31.8151 152.811 32.2865 152.267 32.6172C151.725 32.9453 151.109 33.1094 150.419 33.1094C149.727 33.1094 149.108 32.9453 148.564 32.6172C148.022 32.2865 147.595 31.8138 147.283 31.1992C146.97 30.5846 146.814 29.8516 146.814 29C146.814 28.1458 146.97 27.4128 147.283 26.8008C147.595 26.1862 148.022 25.7148 148.564 25.3867C149.108 25.056 149.727 24.8906 150.419 24.8906C151.109 24.8906 151.725 25.056 152.267 25.3867C152.811 25.7148 153.24 26.1862 153.552 26.8008C153.865 27.4128 154.021 28.1458 154.021 29ZM152.826 29C152.826 28.349 152.72 27.8008 152.509 27.3555C152.301 26.9076 152.014 26.569 151.65 26.3398C151.288 26.1081 150.878 25.9922 150.419 25.9922C149.958 25.9922 149.547 26.1081 149.185 26.3398C148.823 26.569 148.536 26.9076 148.326 27.3555C148.117 27.8008 148.013 28.349 148.013 29C148.013 29.651 148.117 30.2005 148.326 30.6484C148.536 31.0937 148.823 31.4323 149.185 31.6641C149.547 31.8932 149.958 32.0078 150.419 32.0078C150.878 32.0078 151.288 31.8932 151.65 31.6641C152.014 31.4323 152.301 31.0937 152.509 30.6484C152.72 30.2005 152.826 29.651 152.826 29ZM162.313 25V33H161.203L157.137 27.1328H157.063V33H155.856V25H156.973L161.043 30.875H161.117V25H162.313Z" fill="#21406C"/>
<path d="M5.19055 45.1223C4.6658 45.1223 4.20855 44.9911 3.81881 44.7287C3.43161 44.4663 3.13102 44.1072 2.91705 43.6512C2.70307 43.1952 2.59608 42.6755 2.59608 42.0922C2.59608 41.5038 2.70434 40.9803 2.92087 40.5218C3.13994 40.0632 3.44307 39.7041 3.83027 39.4442C4.21747 39.1819 4.66707 39.0507 5.17909 39.0507C5.57138 39.0507 5.92674 39.1271 6.24516 39.2799C6.56358 39.4302 6.82595 39.6429 7.03229 39.918C7.24117 40.1906 7.37236 40.509 7.42585 40.8733H6.73807C6.66674 40.5421 6.4948 40.2594 6.22223 40.025C5.95221 39.7881 5.60832 39.6697 5.19055 39.6697C4.81609 39.6697 4.48494 39.7716 4.19709 39.9754C3.90924 40.1766 3.6838 40.4581 3.52077 40.8198C3.36028 41.179 3.28004 41.5955 3.28004 42.0693C3.28004 42.5456 3.35901 42.9672 3.51695 43.334C3.67488 43.6983 3.8965 43.9836 4.1818 44.1899C4.46965 44.3963 4.8059 44.4994 5.19055 44.4994C5.45038 44.4994 5.68729 44.451 5.90126 44.3542C6.11779 44.2549 6.29865 44.1148 6.44385 43.9339C6.5916 43.7531 6.69094 43.5378 6.74189 43.2882H7.42967C7.37873 43.6423 7.25263 43.9581 7.05139 44.2358C6.8527 44.5109 6.59414 44.7274 6.27572 44.8854C5.95985 45.0433 5.59813 45.1223 5.19055 45.1223ZM11.3299 45.1223C10.823 45.1223 10.3747 44.9936 9.98494 44.7363C9.59775 44.4791 9.29461 44.1237 9.07554 43.6703C8.85647 43.2143 8.74693 42.6883 8.74693 42.0922C8.74693 41.491 8.85647 40.9625 9.07554 40.5065C9.29461 40.048 9.59775 39.6913 9.98494 39.4366C10.3747 39.1793 10.823 39.0507 11.3299 39.0507C11.8369 39.0507 12.2839 39.1793 12.6711 39.4366C13.0583 39.6939 13.3615 40.0505 13.5805 40.5065C13.8021 40.9625 13.913 41.491 13.913 42.0922C13.913 42.6883 13.8034 43.2143 13.5843 43.6703C13.3653 44.1237 13.0609 44.4791 12.6711 44.7363C12.2839 44.9936 11.8369 45.1223 11.3299 45.1223ZM11.3299 44.4994C11.7375 44.4994 12.0827 44.3899 12.3654 44.1708C12.6482 43.9518 12.8622 43.6601 13.0074 43.2958C13.1551 42.9316 13.229 42.5303 13.229 42.0922C13.229 41.6541 13.1551 41.2516 13.0074 40.8848C12.8622 40.5179 12.6482 40.2237 12.3654 40.0021C12.0827 39.7805 11.7375 39.6697 11.3299 39.6697C10.9249 39.6697 10.5798 39.7805 10.2944 40.0021C10.0117 40.2237 9.79644 40.5179 9.64869 40.8848C9.5035 41.2516 9.4309 41.6541 9.4309 42.0922C9.4309 42.5303 9.5035 42.9316 9.64869 43.2958C9.79644 43.6601 10.0117 43.9518 10.2944 44.1708C10.5772 44.3899 10.9224 44.4994 11.3299 44.4994ZM16.2476 41.3318V45H15.5674V39.1309H16.2285V40.0518H16.2896C16.4272 39.7512 16.6411 39.5105 16.9315 39.3296C17.2245 39.1462 17.5862 39.0545 18.0167 39.0545C18.4115 39.0545 18.758 39.1373 19.056 39.3029C19.3566 39.4659 19.5897 39.7066 19.7553 40.025C19.9234 40.3434 20.0074 40.7345 20.0074 41.1981V45H19.3273V41.2401C19.3273 40.7587 19.1923 40.3778 18.9223 40.0976C18.6548 39.8174 18.2956 39.6773 17.8448 39.6773C17.5365 39.6773 17.2627 39.7435 17.0232 39.876C16.7838 40.0085 16.594 40.1995 16.4539 40.4492C16.3163 40.6963 16.2476 40.9905 16.2476 41.3318ZM22.6401 41.3318V45H21.96V39.1309H22.621V40.0518H22.6821C22.8197 39.7512 23.0337 39.5105 23.3241 39.3296C23.617 39.1462 23.9787 39.0545 24.4092 39.0545C24.8041 39.0545 25.1505 39.1373 25.4485 39.3029C25.7491 39.4659 25.9822 39.7066 26.1478 40.025C26.3159 40.3434 26.4 40.7345 26.4 41.1981V45H25.7198V41.2401C25.7198 40.7587 25.5848 40.3778 25.3148 40.0976C25.0473 39.8174 24.6882 39.6773 24.2373 39.6773C23.9291 39.6773 23.6552 39.7435 23.4158 39.876C23.1763 40.0085 22.9865 40.1995 22.8464 40.4492C22.7089 40.6963 22.6401 40.9905 22.6401 41.3318ZM30.7253 45.1223C30.1777 45.1223 29.7039 44.9949 29.3039 44.7402C28.904 44.4829 28.5945 44.1275 28.3754 43.6741C28.1589 43.2181 28.0506 42.6934 28.0506 42.0998C28.0506 41.5089 28.1589 40.9841 28.3754 40.5256C28.5945 40.0645 28.8963 39.7041 29.281 39.4442C29.6682 39.1819 30.1153 39.0507 30.6222 39.0507C30.9406 39.0507 31.2475 39.1093 31.543 39.2264C31.8385 39.3411 32.1035 39.5181 32.3378 39.7576C32.5747 39.9945 32.7619 40.2938 32.8995 40.6555C33.0371 41.0147 33.1058 41.4401 33.1058 41.9317V42.268H28.5206V41.6681H32.4104C32.4104 41.2911 32.334 40.9523 32.1812 40.6517C32.0309 40.3485 31.8207 40.1091 31.5507 39.9333C31.2832 39.7576 30.9737 39.6697 30.6222 39.6697C30.2503 39.6697 29.9229 39.769 29.6402 39.9677C29.3574 40.1664 29.1358 40.4288 28.9753 40.7548C28.8174 41.0809 28.7371 41.4375 28.7346 41.8247V42.1839C28.7346 42.6501 28.8148 43.0576 28.9753 43.4066C29.1383 43.7531 29.3689 44.0218 29.6669 44.2129C29.965 44.4039 30.3178 44.4994 30.7253 44.4994C31.003 44.4994 31.2463 44.4561 31.4552 44.3695C31.6666 44.2829 31.8436 44.167 31.9863 44.0218C32.1315 43.8741 32.241 43.7123 32.3149 43.5365L32.9606 43.7467C32.8715 43.9938 32.725 44.2218 32.5212 44.4307C32.32 44.6396 32.0678 44.8077 31.7647 44.935C31.4641 45.0599 31.1176 45.1223 30.7253 45.1223ZM37.0586 45.1223C36.5339 45.1223 36.0766 44.9911 35.6869 44.7287C35.2997 44.4663 34.9991 44.1072 34.7851 43.6512C34.5712 43.1952 34.4642 42.6755 34.4642 42.0922C34.4642 41.5038 34.5724 40.9803 34.789 40.5218C35.008 40.0632 35.3112 39.7041 35.6984 39.4442C36.0856 39.1819 36.5352 39.0507 37.0472 39.0507C37.4395 39.0507 37.7948 39.1271 38.1133 39.2799C38.4317 39.4302 38.694 39.6429 38.9004 39.918C39.1093 40.1906 39.2405 40.509 39.2939 40.8733H38.6062C38.5348 40.5421 38.3629 40.2594 38.0903 40.025C37.8203 39.7881 37.4764 39.6697 37.0586 39.6697C36.6842 39.6697 36.353 39.7716 36.0652 39.9754C35.7773 40.1766 35.5519 40.4581 35.3889 40.8198C35.2284 41.179 35.1481 41.5955 35.1481 42.0693C35.1481 42.5456 35.2271 42.9672 35.385 43.334C35.543 43.6983 35.7646 43.9836 36.0499 44.1899C36.3377 44.3963 36.674 44.4994 37.0586 44.4994C37.3185 44.4994 37.5554 44.451 37.7694 44.3542C37.9859 44.2549 38.1667 44.1148 38.3119 43.9339C38.4597 43.7531 38.559 43.5378 38.61 43.2882H39.2978C39.2468 43.6423 39.1207 43.9581 38.9195 44.2358C38.7208 44.5109 38.4622 44.7274 38.1438 44.8854C37.8279 45.0433 37.4662 45.1223 37.0586 45.1223ZM43.2286 39.1309V39.7232H40.4278V39.1309H43.2286ZM41.3028 37.7248H41.9868V43.4678C41.9868 43.7123 42.0288 43.9046 42.1129 44.0447C42.1969 44.1823 42.3065 44.2804 42.4415 44.339C42.5765 44.395 42.7204 44.423 42.8733 44.423C42.9624 44.423 43.0388 44.4179 43.1025 44.4077C43.1662 44.395 43.2222 44.3823 43.2706 44.3695L43.4158 44.9847C43.3496 45.0102 43.2681 45.0331 43.1713 45.0535C43.0745 45.0764 42.9548 45.0879 42.8121 45.0879C42.5625 45.0879 42.3218 45.0331 42.0899 44.9236C41.8607 44.814 41.6722 44.651 41.5244 44.4345C41.3767 44.218 41.3028 43.9492 41.3028 43.6283V37.7248ZM45.4772 45.0573C45.3269 45.0573 45.197 45.0038 45.0875 44.8968C44.9805 44.7873 44.927 44.6574 44.927 44.5071C44.927 44.3542 44.9805 44.2243 45.0875 44.1173C45.197 44.0104 45.3269 43.9569 45.4772 43.9569C45.6301 43.9569 45.76 44.0104 45.867 44.1173C45.974 44.2243 46.0275 44.3542 46.0275 44.5071C46.0275 44.6064 46.002 44.6981 45.951 44.7822C45.9026 44.8663 45.8364 44.9338 45.7524 44.9847C45.6708 45.0331 45.5791 45.0573 45.4772 45.0573ZM50.2783 45.1223C49.7536 45.1223 49.2963 44.9911 48.9066 44.7287C48.5194 44.4663 48.2188 44.1072 48.0048 43.6512C47.7908 43.1952 47.6838 42.6755 47.6838 42.0922C47.6838 41.5038 47.7921 40.9803 48.0086 40.5218C48.2277 40.0632 48.5308 39.7041 48.918 39.4442C49.3052 39.1819 49.7548 39.0507 50.2669 39.0507C50.6591 39.0507 51.0145 39.1271 51.3329 39.2799C51.6513 39.4302 51.9137 39.6429 52.1201 39.918C52.3289 40.1906 52.4601 40.509 52.5136 40.8733H51.8258C51.7545 40.5421 51.5826 40.2594 51.31 40.025C51.04 39.7881 50.6961 39.6697 50.2783 39.6697C49.9039 39.6697 49.5727 39.7716 49.2849 39.9754C48.997 40.1766 48.7716 40.4581 48.6085 40.8198C48.448 41.179 48.3678 41.5955 48.3678 42.0693C48.3678 42.5456 48.4468 42.9672 48.6047 43.334C48.7626 43.6983 48.9843 43.9836 49.2696 44.1899C49.5574 44.3963 49.8937 44.4994 50.2783 44.4994C50.5381 44.4994 50.7751 44.451 50.989 44.3542C51.2056 44.2549 51.3864 44.1148 51.5316 43.9339C51.6794 43.7531 51.7787 43.5378 51.8297 43.2882H52.5174C52.4665 43.6423 52.3404 43.9581 52.1392 44.2358C51.9405 44.5109 51.6819 44.7274 51.3635 44.8854C51.0476 45.0433 50.6859 45.1223 50.2783 45.1223ZM56.4177 45.1223C55.9108 45.1223 55.4625 44.9936 55.0727 44.7363C54.6855 44.4791 54.3824 44.1237 54.1633 43.6703C53.9442 43.2143 53.8347 42.6883 53.8347 42.0922C53.8347 41.491 53.9442 40.9625 54.1633 40.5065C54.3824 40.048 54.6855 39.6913 55.0727 39.4366C55.4625 39.1793 55.9108 39.0507 56.4177 39.0507C56.9246 39.0507 57.3717 39.1793 57.7589 39.4366C58.1461 39.6939 58.4492 40.0505 58.6683 40.5065C58.8899 40.9625 59.0007 41.491 59.0007 42.0922C59.0007 42.6883 58.8912 43.2143 58.6721 43.6703C58.453 44.1237 58.1486 44.4791 57.7589 44.7363C57.3717 44.9936 56.9246 45.1223 56.4177 45.1223ZM56.4177 44.4994C56.8253 44.4994 57.1704 44.3899 57.4532 44.1708C57.736 43.9518 57.9499 43.6601 58.0951 43.2958C58.2429 42.9316 58.3168 42.5303 58.3168 42.0922C58.3168 41.6541 58.2429 41.2516 58.0951 40.8848C57.9499 40.5179 57.736 40.2237 57.4532 40.0021C57.1704 39.7805 56.8253 39.6697 56.4177 39.6697C56.0127 39.6697 55.6675 39.7805 55.3822 40.0021C55.0995 40.2237 54.8842 40.5179 54.7365 40.8848C54.5913 41.2516 54.5187 41.6541 54.5187 42.0922C54.5187 42.5303 54.5913 42.9316 54.7365 43.2958C54.8842 43.6601 55.0995 43.9518 55.3822 44.1708C55.665 44.3899 56.0101 44.4994 56.4177 44.4994ZM60.6552 45V39.1309H61.3162V40.0327H61.3774C61.4945 39.7295 61.6894 39.4914 61.962 39.3181C62.2371 39.1424 62.567 39.0545 62.9516 39.0545C63.3566 39.0545 63.6891 39.15 63.9489 39.3411C64.2113 39.5296 64.4074 39.7894 64.5373 40.1206H64.587C64.7195 39.7945 64.9347 39.5359 65.2328 39.3449C65.5334 39.1513 65.8976 39.0545 66.3256 39.0545C66.8707 39.0545 67.3012 39.2264 67.6171 39.5703C67.933 39.9117 68.0909 40.411 68.0909 41.0682V45H67.4108V41.0682C67.4108 40.6045 67.2923 40.2568 67.0554 40.025C66.8185 39.7932 66.5064 39.6773 66.1192 39.6773C65.6709 39.6773 65.3257 39.8149 65.0838 40.09C64.8418 40.3651 64.7208 40.7141 64.7208 41.1369V45H64.0253V41.007C64.0253 40.6096 63.9145 40.2887 63.6929 40.0441C63.4713 39.7996 63.1592 39.6773 62.7567 39.6773C62.4867 39.6773 62.2435 39.7435 62.0269 39.876C61.813 40.0085 61.6436 40.1932 61.5187 40.4301C61.3965 40.6644 61.3353 40.9344 61.3353 41.2401V45H60.6552ZM70.053 45V39.1309H70.714V40.0327H70.7751C70.8923 39.7295 71.0872 39.4914 71.3597 39.3181C71.6349 39.1424 71.9647 39.0545 72.3494 39.0545C72.7544 39.0545 73.0868 39.15 73.3467 39.3411C73.6091 39.5296 73.8052 39.7894 73.9351 40.1206H73.9848C74.1172 39.7945 74.3325 39.5359 74.6305 39.3449C74.9311 39.1513 75.2954 39.0545 75.7234 39.0545C76.2685 39.0545 76.699 39.2264 77.0149 39.5703C77.3307 39.9117 77.4887 40.411 77.4887 41.0682V45H76.8085V41.0682C76.8085 40.6045 76.6901 40.2568 76.4532 40.025C76.2163 39.7932 75.9042 39.6773 75.517 39.6773C75.0687 39.6773 74.7235 39.8149 74.4815 40.09C74.2395 40.3651 74.1185 40.7141 74.1185 41.1369V45H73.4231V41.007C73.4231 40.6096 73.3123 40.2887 73.0907 40.0441C72.869 39.7996 72.557 39.6773 72.1545 39.6773C71.8845 39.6773 71.6412 39.7435 71.4247 39.876C71.2107 40.0085 71.0413 40.1932 70.9165 40.4301C70.7942 40.6644 70.7331 40.9344 70.7331 41.2401V45H70.053ZM83.18 42.7571V39.1309H83.8602V45H83.18V44.0256H83.1265C82.989 44.3262 82.7712 44.5771 82.4731 44.7784C82.1751 44.9771 81.8108 45.0764 81.3803 45.0764C81.0059 45.0764 80.6734 44.9949 80.3831 44.8319C80.0927 44.6663 79.8647 44.4243 79.6991 44.1059C79.5335 43.7875 79.4507 43.3964 79.4507 42.9328V39.1309H80.1309V42.8908C80.1309 43.3493 80.2659 43.7187 80.5359 43.9989C80.8059 44.2766 81.1523 44.4154 81.5752 44.4154C81.8401 44.4154 82.0949 44.3517 82.3394 44.2243C82.584 44.097 82.7852 43.911 82.9431 43.6665C83.1011 43.4194 83.18 43.1162 83.18 42.7571ZM86.5024 41.3318V45H85.8222V39.1309H86.4833V40.0518H86.5444C86.682 39.7512 86.8959 39.5105 87.1863 39.3296C87.4793 39.1462 87.841 39.0545 88.2715 39.0545C88.6663 39.0545 89.0128 39.1373 89.3108 39.3029C89.6114 39.4659 89.8445 39.7066 90.0101 40.025C90.1782 40.3434 90.2623 40.7345 90.2623 41.1981V45H89.5821V41.2401C89.5821 40.7587 89.4471 40.3778 89.1771 40.0976C88.9096 39.8174 88.5504 39.6773 88.0996 39.6773C87.7913 39.6773 87.5175 39.7435 87.278 39.876C87.0386 40.0085 86.8488 40.1995 86.7087 40.4492C86.5712 40.6963 86.5024 40.9905 86.5024 41.3318ZM92.2224 45V39.1309H92.9064V45H92.2224ZM92.5701 38.1222C92.43 38.1222 92.3103 38.075 92.2109 37.9808C92.1116 37.884 92.0619 37.7681 92.0619 37.6331C92.0619 37.4981 92.1116 37.3834 92.2109 37.2892C92.3103 37.1924 92.43 37.144 92.5701 37.144C92.7102 37.144 92.83 37.1924 92.9293 37.2892C93.0286 37.3834 93.0783 37.4981 93.0783 37.6331C93.0783 37.7681 93.0286 37.884 92.9293 37.9808C92.83 38.075 92.7102 38.1222 92.5701 38.1222ZM97.1591 45.1223C96.6344 45.1223 96.1771 44.9911 95.7874 44.7287C95.4002 44.4663 95.0996 44.1072 94.8856 43.6512C94.6717 43.1952 94.5647 42.6755 94.5647 42.0922C94.5647 41.5038 94.6729 40.9803 94.8894 40.5218C95.1085 40.0632 95.4117 39.7041 95.7989 39.4442C96.186 39.1819 96.6357 39.0507 97.1477 39.0507C97.54 39.0507 97.8953 39.1271 98.2137 39.2799C98.5322 39.4302 98.7945 39.6429 99.0009 39.918C99.2098 40.1906 99.3409 40.509 99.3944 40.8733H98.7067C98.6353 40.5421 98.4634 40.2594 98.1908 40.025C97.9208 39.7881 97.5769 39.6697 97.1591 39.6697C96.7847 39.6697 96.4535 39.7716 96.1657 39.9754C95.8778 40.1766 95.6524 40.4581 95.4893 40.8198C95.3289 41.179 95.2486 41.5955 95.2486 42.0693C95.2486 42.5456 95.3276 42.9672 95.4855 43.334C95.6435 43.6983 95.8651 43.9836 96.1504 44.1899C96.4382 44.3963 96.7745 44.4994 97.1591 44.4994C97.419 44.4994 97.6559 44.451 97.8698 44.3542C98.0864 44.2549 98.2672 44.1148 98.4124 43.9339C98.5602 43.7531 98.6595 43.5378 98.7105 43.2882H99.3983C99.3473 43.6423 99.2212 43.9581 99.02 44.2358C98.8213 44.5109 98.5627 44.7274 98.2443 44.8854C97.9284 45.0433 97.5667 45.1223 97.1591 45.1223ZM102.657 45.1337C102.303 45.1337 101.979 45.065 101.686 44.9274C101.393 44.7873 101.16 44.5861 100.987 44.3237C100.814 44.0588 100.727 43.7378 100.727 43.3608C100.727 43.0704 100.782 42.8258 100.891 42.6271C101.001 42.4285 101.156 42.2654 101.357 42.1381C101.559 42.0107 101.797 41.9101 102.072 41.8362C102.347 41.7623 102.65 41.705 102.981 41.6642C103.31 41.6235 103.588 41.5878 103.814 41.5573C104.044 41.5267 104.218 41.4783 104.338 41.4121C104.458 41.3458 104.517 41.2388 104.517 41.0911V40.9535C104.517 40.5536 104.398 40.239 104.158 40.0097C103.921 39.7779 103.58 39.662 103.134 39.662C102.711 39.662 102.366 39.755 102.099 39.941C101.834 40.1269 101.648 40.346 101.541 40.5982L100.895 40.3651C101.028 40.0441 101.211 39.7881 101.445 39.5971C101.68 39.4035 101.942 39.2646 102.232 39.1806C102.523 39.094 102.817 39.0507 103.115 39.0507C103.339 39.0507 103.572 39.08 103.814 39.1386C104.059 39.1971 104.286 39.299 104.495 39.4442C104.703 39.5869 104.873 39.7869 105.003 40.0441C105.133 40.2989 105.198 40.6224 105.198 41.0147V45H104.517V44.0715H104.475C104.394 44.2447 104.273 44.4128 104.112 44.5759C103.952 44.7389 103.751 44.8726 103.509 44.9771C103.267 45.0815 102.983 45.1337 102.657 45.1337ZM102.748 44.5109C103.11 44.5109 103.423 44.4307 103.688 44.2702C103.953 44.1097 104.157 43.897 104.3 43.6321C104.445 43.3646 104.517 43.0704 104.517 42.7494V41.9012C104.466 41.9496 104.381 41.9929 104.261 42.0311C104.144 42.0693 104.008 42.1037 103.853 42.1342C103.7 42.1623 103.547 42.1865 103.394 42.2068C103.241 42.2272 103.104 42.245 102.981 42.2603C102.65 42.3011 102.367 42.3648 102.133 42.4514C101.899 42.538 101.719 42.6577 101.594 42.8106C101.47 42.9608 101.407 43.1544 101.407 43.3913C101.407 43.748 101.534 44.0244 101.789 44.2205C102.044 44.4141 102.364 44.5109 102.748 44.5109ZM109.48 39.1309V39.7232H106.679V39.1309H109.48ZM107.554 37.7248H108.238V43.4678C108.238 43.7123 108.28 43.9046 108.364 44.0447C108.448 44.1823 108.558 44.2804 108.693 44.339C108.828 44.395 108.972 44.423 109.125 44.423C109.214 44.423 109.29 44.4179 109.354 44.4077C109.418 44.395 109.474 44.3823 109.522 44.3695L109.667 44.9847C109.601 45.0102 109.519 45.0331 109.423 45.0535C109.326 45.0764 109.206 45.0879 109.063 45.0879C108.814 45.0879 108.573 45.0331 108.341 44.9236C108.112 44.814 107.924 44.651 107.776 44.4345C107.628 44.218 107.554 43.9492 107.554 43.6283V37.7248ZM113.496 45.1223C112.948 45.1223 112.474 44.9949 112.074 44.7402C111.674 44.4829 111.365 44.1275 111.146 43.6741C110.929 43.2181 110.821 42.6934 110.821 42.0998C110.821 41.5089 110.929 40.9841 111.146 40.5256C111.365 40.0645 111.667 39.7041 112.051 39.4442C112.439 39.1819 112.886 39.0507 113.393 39.0507C113.711 39.0507 114.018 39.1093 114.314 39.2264C114.609 39.3411 114.874 39.5181 115.108 39.7576C115.345 39.9945 115.532 40.2938 115.67 40.6555C115.808 41.0147 115.876 41.4401 115.876 41.9317V42.268H111.291V41.6681H115.181C115.181 41.2911 115.104 40.9523 114.952 40.6517C114.801 40.3485 114.591 40.1091 114.321 39.9333C114.054 39.7576 113.744 39.6697 113.393 39.6697C113.021 39.6697 112.693 39.769 112.411 39.9677C112.128 40.1664 111.906 40.4288 111.746 40.7548C111.588 41.0809 111.508 41.4375 111.505 41.8247V42.1839C111.505 42.6501 111.585 43.0576 111.746 43.4066C111.909 43.7531 112.139 44.0218 112.437 44.2129C112.735 44.4039 113.088 44.4994 113.496 44.4994C113.773 44.4994 114.017 44.4561 114.226 44.3695C114.437 44.2829 114.614 44.167 114.757 44.0218C114.902 43.8741 115.011 43.7123 115.085 43.5365L115.731 43.7467C115.642 43.9938 115.495 44.2218 115.292 44.4307C115.09 44.6396 114.838 44.8077 114.535 44.935C114.235 45.0599 113.888 45.1223 113.496 45.1223ZM118.079 45.0573C117.929 45.0573 117.799 45.0038 117.689 44.8968C117.582 44.7873 117.529 44.6574 117.529 44.5071C117.529 44.3542 117.582 44.2243 117.689 44.1173C117.799 44.0104 117.929 43.9569 118.079 43.9569C118.232 43.9569 118.362 44.0104 118.469 44.1173C118.576 44.2243 118.629 44.3542 118.629 44.5071C118.629 44.6064 118.604 44.6981 118.553 44.7822C118.504 44.8663 118.438 44.9338 118.354 44.9847C118.273 45.0331 118.181 45.0573 118.079 45.0573ZM122.88 45.1223C122.355 45.1223 121.898 44.9911 121.508 44.7287C121.121 44.4663 120.821 44.1072 120.607 43.6512C120.393 43.1952 120.286 42.6755 120.286 42.0922C120.286 41.5038 120.394 40.9803 120.61 40.5218C120.83 40.0632 121.133 39.7041 121.52 39.4442C121.907 39.1819 122.357 39.0507 122.869 39.0507C123.261 39.0507 123.616 39.1271 123.935 39.2799C124.253 39.4302 124.516 39.6429 124.722 39.918C124.931 40.1906 125.062 40.509 125.115 40.8733H124.428C124.356 40.5421 124.184 40.2594 123.912 40.025C123.642 39.7881 123.298 39.6697 122.88 39.6697C122.506 39.6697 122.175 39.7716 121.887 39.9754C121.599 40.1766 121.373 40.4581 121.21 40.8198C121.05 41.179 120.97 41.5955 120.97 42.0693C120.97 42.5456 121.049 42.9672 121.207 43.334C121.364 43.6983 121.586 43.9836 121.871 44.1899C122.159 44.3963 122.496 44.4994 122.88 44.4994C123.14 44.4994 123.377 44.451 123.591 44.3542C123.807 44.2549 123.988 44.1148 124.133 43.9339C124.281 43.7531 124.381 43.5378 124.431 43.2882H125.119C125.068 43.6423 124.942 43.9581 124.741 44.2358C124.542 44.5109 124.284 44.7274 123.965 44.8854C123.649 45.0433 123.288 45.1223 122.88 45.1223ZM129.02 45.1223C128.513 45.1223 128.064 44.9936 127.675 44.7363C127.287 44.4791 126.984 44.1237 126.765 43.6703C126.546 43.2143 126.437 42.6883 126.437 42.0922C126.437 41.491 126.546 40.9625 126.765 40.5065C126.984 40.048 127.287 39.6913 127.675 39.4366C128.064 39.1793 128.513 39.0507 129.02 39.0507C129.526 39.0507 129.974 39.1793 130.361 39.4366C130.748 39.6939 131.051 40.0505 131.27 40.5065C131.492 40.9625 131.603 41.491 131.603 42.0922C131.603 42.6883 131.493 43.2143 131.274 43.6703C131.055 44.1237 130.75 44.4791 130.361 44.7363C129.974 44.9936 129.526 45.1223 129.02 45.1223ZM129.02 44.4994C129.427 44.4994 129.772 44.3899 130.055 44.1708C130.338 43.9518 130.552 43.6601 130.697 43.2958C130.845 42.9316 130.919 42.5303 130.919 42.0922C130.919 41.6541 130.845 41.2516 130.697 40.8848C130.552 40.5179 130.338 40.2237 130.055 40.0021C129.772 39.7805 129.427 39.6697 129.02 39.6697C128.615 39.6697 128.269 39.7805 127.984 40.0021C127.701 40.2237 127.486 40.5179 127.338 40.8848C127.193 41.2516 127.121 41.6541 127.121 42.0922C127.121 42.5303 127.193 42.9316 127.338 43.2958C127.486 43.6601 127.701 43.9518 127.984 44.1708C128.267 44.3899 128.612 44.4994 129.02 44.4994ZM133.937 41.3318V45H133.257V39.1309H133.918V40.0518H133.979C134.117 39.7512 134.331 39.5105 134.621 39.3296C134.914 39.1462 135.276 39.0545 135.706 39.0545C136.101 39.0545 136.448 39.1373 136.746 39.3029C137.046 39.4659 137.279 39.7066 137.445 40.025C137.613 40.3434 137.697 40.7345 137.697 41.1981V45H137.017V41.2401C137.017 40.7587 136.882 40.3778 136.612 40.0976C136.344 39.8174 135.985 39.6773 135.534 39.6773C135.226 39.6773 134.952 39.7435 134.713 39.876C134.473 40.0085 134.284 40.1995 134.144 40.4492C134.006 40.6963 133.937 40.9905 133.937 41.3318ZM143.627 47.2009V43.911H143.566C143.487 44.0893 143.375 44.2727 143.23 44.4612C143.085 44.6472 142.892 44.8039 142.653 44.9312C142.413 45.0586 142.117 45.1223 141.763 45.1223C141.284 45.1223 140.862 44.9949 140.498 44.7402C140.136 44.4854 139.853 44.1301 139.65 43.6741C139.448 43.2181 139.348 42.687 139.348 42.0807C139.348 41.477 139.448 40.9484 139.65 40.495C139.853 40.039 140.137 39.685 140.502 39.4328C140.866 39.178 141.29 39.0507 141.774 39.0507C142.133 39.0507 142.43 39.1144 142.664 39.2417C142.901 39.3691 143.091 39.5257 143.234 39.7117C143.376 39.8951 143.487 40.0747 143.566 40.2505H143.646V39.1309H144.311V47.2009H143.627ZM141.843 44.4994C142.222 44.4994 142.546 44.3963 142.813 44.1899C143.081 43.9811 143.285 43.6945 143.425 43.3302C143.567 42.9634 143.639 42.5431 143.639 42.0693C143.639 41.6006 143.569 41.1866 143.429 40.8274C143.288 40.4657 143.085 40.183 142.817 39.9792C142.552 39.7728 142.227 39.6697 141.843 39.6697C141.451 39.6697 141.119 39.7767 140.849 39.9906C140.579 40.2021 140.376 40.4886 140.238 40.8504C140.1 41.2121 140.032 41.6184 140.032 42.0693C140.032 42.5253 140.102 42.9366 140.242 43.3035C140.382 43.6703 140.587 43.962 140.857 44.1785C141.127 44.3925 141.456 44.4994 141.843 44.4994ZM149.992 42.7571V39.1309H150.672V45H149.992V44.0256H149.939C149.801 44.3262 149.583 44.5771 149.285 44.7784C148.987 44.9771 148.623 45.0764 148.192 45.0764C147.818 45.0764 147.485 44.9949 147.195 44.8319C146.905 44.6663 146.677 44.4243 146.511 44.1059C146.346 43.7875 146.263 43.3964 146.263 42.9328V39.1309H146.943V42.8908C146.943 43.3493 147.078 43.7187 147.348 43.9989C147.618 44.2766 147.964 44.4154 148.387 44.4154C148.652 44.4154 148.907 44.3517 149.151 44.2243C149.396 44.097 149.597 43.911 149.755 43.6665C149.913 43.4194 149.992 43.1162 149.992 42.7571ZM155.007 45.1223C154.459 45.1223 153.986 44.9949 153.586 44.7402C153.186 44.4829 152.876 44.1275 152.657 43.6741C152.441 43.2181 152.332 42.6934 152.332 42.0998C152.332 41.5089 152.441 40.9841 152.657 40.5256C152.876 40.0645 153.178 39.7041 153.563 39.4442C153.95 39.1819 154.397 39.0507 154.904 39.0507C155.222 39.0507 155.529 39.1093 155.825 39.2264C156.12 39.3411 156.385 39.5181 156.62 39.7576C156.856 39.9945 157.044 40.2938 157.181 40.6555C157.319 41.0147 157.388 41.4401 157.388 41.9317V42.268H152.802V41.6681H156.692C156.692 41.2911 156.616 40.9523 156.463 40.6517C156.313 40.3485 156.102 40.1091 155.832 39.9333C155.565 39.7576 155.255 39.6697 154.904 39.6697C154.532 39.6697 154.205 39.769 153.922 39.9677C153.639 40.1664 153.418 40.4288 153.257 40.7548C153.099 41.0809 153.019 41.4375 153.016 41.8247V42.1839C153.016 42.6501 153.097 43.0576 153.257 43.4066C153.42 43.7531 153.651 44.0218 153.949 44.2129C154.247 44.4039 154.6 44.4994 155.007 44.4994C155.285 44.4994 155.528 44.4561 155.737 44.3695C155.948 44.2829 156.125 44.167 156.268 44.0218C156.413 43.8741 156.523 43.7123 156.597 43.5365L157.242 43.7467C157.153 43.9938 157.007 44.2218 156.803 44.4307C156.602 44.6396 156.35 44.8077 156.046 44.935C155.746 45.0599 155.399 45.1223 155.007 45.1223ZM159.048 45V39.1309H159.709V40.0327H159.759C159.876 39.7372 160.08 39.499 160.37 39.3181C160.663 39.1347 160.994 39.043 161.363 39.043C161.419 39.043 161.482 39.0443 161.551 39.0468C161.619 39.0494 161.677 39.0519 161.723 39.0545V39.7461C161.692 39.741 161.638 39.7334 161.562 39.7232C161.486 39.713 161.403 39.7079 161.314 39.7079C161.008 39.7079 160.735 39.7728 160.496 39.9028C160.259 40.0301 160.072 40.2072 159.934 40.4339C159.797 40.6606 159.728 40.9191 159.728 41.2095V45H159.048Z" fill="#24436F"/>
</svg>
