<svg width="402" height="97" viewBox="0 0 402 97" fill="none" xmlns="http://www.w3.org/2000/svg">
<path d="M37.1582 40.918H5.81055V69.873H41.9434V75H0V3.90625H41.748V9.08203H5.81055V35.791H37.1582V40.918Z" fill="#254279"/>
<path d="M59.668 75V22.168H65.0391L65.3809 32.4219C66.1947 30.8919 67.1549 29.4759 68.2617 28.1738C69.3685 26.8717 70.6055 25.7487 71.9727 24.8047C73.5677 23.6979 75.3255 22.819 77.2461 22.168C79.1992 21.5169 81.2663 21.1914 83.4473 21.1914C86.3444 21.1914 88.8997 21.6309 91.1133 22.5098C93.3594 23.3887 95.2311 24.6745 96.7285 26.3672C98.2585 28.0924 99.4141 30.1921 100.195 32.666C100.977 35.14 101.367 37.9557 101.367 41.1133V75H95.5566V41.2109C95.5241 38.8021 95.2311 36.6699 94.6777 34.8145C94.1569 32.959 93.3431 31.3965 92.2363 30.127C91.097 28.8574 89.681 27.8971 87.9883 27.2461C86.3281 26.5951 84.3424 26.2858 82.0312 26.3184C80.013 26.3184 78.1087 26.6764 76.3184 27.3926C74.528 28.0762 72.9004 29.0039 71.4355 30.1758C70.0684 31.2826 68.8802 32.6009 67.8711 34.1309C66.862 35.6283 66.0807 37.2233 65.5273 38.916V75H59.668Z" fill="#254279"/>
<path d="M118.066 48.0957C118.066 44.6452 118.473 41.3411 119.287 38.1836C120.101 35.026 121.354 32.194 123.047 29.6875C124.74 27.181 126.904 25.1465 129.541 23.584C132.21 21.9889 135.384 21.1914 139.062 21.1914C140.983 21.1914 142.79 21.4355 144.482 21.9238C146.208 22.3796 147.786 23.0632 149.219 23.9746C150.358 24.6908 151.4 25.5208 152.344 26.4648C153.32 27.4089 154.183 28.4505 154.932 29.5898L155.176 22.168H160.596V74.0723C160.596 77.3275 160.091 80.2897 159.082 82.959C158.105 85.6608 156.706 87.972 154.883 89.8926C153.027 91.8457 150.798 93.3594 148.193 94.4336C145.622 95.5078 142.708 96.0449 139.453 96.0449C137.695 96.0449 135.905 95.8171 134.082 95.3613C132.259 94.9381 130.501 94.2871 128.809 93.4082C127.344 92.6921 125.928 91.7969 124.561 90.7227C123.226 89.681 122.038 88.4603 120.996 87.0605L124.268 83.4473C125.212 84.5866 126.188 85.5957 127.197 86.4746C128.206 87.3535 129.248 88.1022 130.322 88.7207C131.657 89.4694 133.04 90.0391 134.473 90.4297C135.938 90.8529 137.467 91.0645 139.062 91.0645C141.569 91.0645 143.783 90.6576 145.703 89.8438C147.656 89.0299 149.316 87.8906 150.684 86.4258C151.986 84.9609 152.979 83.1869 153.662 81.1035C154.378 79.0527 154.736 76.7741 154.736 74.2676V68.457C153.955 69.5638 153.044 70.5566 152.002 71.4355C150.993 72.2819 149.886 73.0306 148.682 73.6816C147.249 74.4303 145.703 75 144.043 75.3906C142.415 75.7812 140.723 75.9766 138.965 75.9766C135.482 75.9766 132.454 75.2441 129.883 73.7793C127.311 72.3145 125.163 70.3613 123.438 67.9199C121.615 65.446 120.264 62.5651 119.385 59.2773C118.506 55.957 118.066 52.5716 118.066 49.1211V48.0957ZM123.926 49.1211C123.958 51.8229 124.268 54.5247 124.854 57.2266C125.472 59.8958 126.449 62.2396 127.783 64.2578C128.988 66.2435 130.615 67.8385 132.666 69.043C134.717 70.2474 137.174 70.8496 140.039 70.8496C141.699 70.8496 143.278 70.638 144.775 70.2148C146.305 69.7591 147.721 69.1244 149.023 68.3105C150.26 67.4967 151.367 66.5202 152.344 65.3809C153.353 64.209 154.15 62.8906 154.736 61.4258V36.5723C154.15 35.0423 153.385 33.6589 152.441 32.4219C151.497 31.1849 150.407 30.1107 149.17 29.1992C147.933 28.2878 146.549 27.5879 145.02 27.0996C143.522 26.5788 141.895 26.3184 140.137 26.3184C137.044 26.3184 134.456 27.002 132.373 28.3691C130.29 29.7038 128.63 31.4128 127.393 33.4961C126.156 35.5469 125.26 37.8418 124.707 40.3809C124.186 42.9199 123.926 45.4915 123.926 48.0957V49.1211Z" fill="#254279"/>
<path d="M181.152 0H205.762V69.7754H223.633V75H181.152V69.7754H199.951V5.22461H181.152V0Z" fill="#254279"/>
<path d="M241.211 22.168H265.723V69.7754H283.691V75H241.211V69.7754H259.912V27.3926H241.211V22.168ZM258.203 7.71484C258.203 7.09635 258.285 6.51042 258.447 5.95703C258.61 5.40365 258.887 4.91536 259.277 4.49219C259.635 4.10156 260.091 3.80859 260.645 3.61328C261.198 3.38542 261.849 3.27148 262.598 3.27148C263.346 3.27148 263.997 3.38542 264.551 3.61328C265.104 3.80859 265.544 4.10156 265.869 4.49219C266.26 4.88281 266.553 5.35482 266.748 5.9082C266.943 6.46159 267.041 7.0638 267.041 7.71484C267.041 8.88672 266.683 9.89583 265.967 10.7422C265.251 11.5885 264.128 12.0117 262.598 12.0117C261.035 12.0117 259.912 11.5885 259.229 10.7422C258.545 9.89583 258.203 8.88672 258.203 7.71484Z" fill="#254279"/>
<path d="M336.768 61.5234C336.768 59.9935 336.41 58.6589 335.693 57.5195C334.977 56.3477 333.984 55.3548 332.715 54.541C331.315 53.6296 329.606 52.8483 327.588 52.1973C325.602 51.5462 323.551 50.9928 321.436 50.5371C318.734 49.9837 316.26 49.349 314.014 48.6328C311.768 47.9167 309.668 46.9889 307.715 45.8496C305.892 44.7754 304.411 43.4082 303.271 41.748C302.165 40.0553 301.611 38.0046 301.611 35.5957C301.611 33.3171 302.165 31.2826 303.271 29.4922C304.411 27.7018 305.924 26.1719 307.812 24.9023C309.603 23.7305 311.686 22.819 314.062 22.168C316.471 21.5169 318.945 21.1914 321.484 21.1914C324.316 21.1914 326.969 21.5495 329.443 22.2656C331.95 22.9492 334.147 23.9583 336.035 25.293C337.891 26.6602 339.372 28.3203 340.479 30.2734C341.585 32.2266 342.188 34.4564 342.285 36.9629H336.426C336.393 35.2702 335.938 33.7565 335.059 32.4219C334.212 31.0872 333.105 29.9642 331.738 29.0527C330.339 28.1413 328.743 27.4414 326.953 26.9531C325.195 26.4648 323.372 26.2207 321.484 26.2207C319.694 26.2207 317.952 26.416 316.26 26.8066C314.6 27.1647 313.118 27.7344 311.816 28.5156C310.482 29.2643 309.408 30.2246 308.594 31.3965C307.812 32.5358 307.422 33.8704 307.422 35.4004C307.422 36.9303 307.764 38.265 308.447 39.4043C309.163 40.5111 310.205 41.4551 311.572 42.2363C312.939 43.0501 314.583 43.7337 316.504 44.2871C318.424 44.8079 320.426 45.2799 322.51 45.7031C325.179 46.2565 327.718 46.9401 330.127 47.7539C332.568 48.5352 334.717 49.5117 336.572 50.6836C338.428 51.888 339.893 53.3529 340.967 55.0781C342.041 56.7708 342.578 58.8216 342.578 61.2305C342.578 63.5091 342.057 65.5436 341.016 67.334C339.974 69.1244 338.623 70.6055 336.963 71.7773C334.945 73.2096 332.601 74.2676 329.932 74.9512C327.262 75.6348 324.561 75.9766 321.826 75.9766C318.831 75.9766 315.999 75.6022 313.33 74.8535C310.661 74.1048 308.35 73.0469 306.396 71.6797C304.378 70.3451 302.783 68.7012 301.611 66.748C300.472 64.7949 299.854 62.5977 299.756 60.1562H305.566C305.762 62.2396 306.38 63.9811 307.422 65.3809C308.496 66.7806 309.814 67.8874 311.377 68.7012C312.874 69.5475 314.535 70.1497 316.357 70.5078C318.213 70.8333 320.036 70.9961 321.826 70.9961C324.137 70.9961 326.318 70.7194 328.369 70.166C330.42 69.5801 332.194 68.7174 333.691 67.5781C334.668 66.7969 335.417 65.918 335.938 64.9414C336.491 63.9323 336.768 62.793 336.768 61.5234Z" fill="#254279"/>
<path d="M365.82 32.4707C366.602 30.9733 367.529 29.5898 368.604 28.3203C369.71 27.0182 370.931 25.8789 372.266 24.9023C373.893 23.7305 375.667 22.819 377.588 22.168C379.541 21.5169 381.624 21.1914 383.838 21.1914C386.735 21.1914 389.307 21.6471 391.553 22.5586C393.799 23.4375 395.671 24.7233 397.168 26.416C398.698 28.1413 399.854 30.2572 400.635 32.7637C401.416 35.2702 401.807 38.1022 401.807 41.2598V75H395.996V41.2109C395.964 38.9323 395.687 36.8815 395.166 35.0586C394.645 33.2031 393.848 31.6406 392.773 30.3711C391.634 29.0365 390.202 28.0273 388.477 27.3438C386.784 26.6276 384.782 26.2858 382.471 26.3184C380.452 26.3184 378.532 26.6602 376.709 27.3438C374.919 28.0273 373.275 28.9714 371.777 30.1758C370.41 31.25 369.222 32.5195 368.213 33.9844C367.204 35.4492 366.406 37.0117 365.82 38.6719V75H360.01V0H365.82V32.4707Z" fill="#254279"/>
<path d="M37.5723 39.7461H4.51562V72.3633H42.2109V75H1.92773V3.90625H42.2109V6.54297H4.51562V37.1094H37.5723V39.7461Z" fill="white"/>
<path d="M61.5957 75V22.168H64.2812V34.8633C65.1276 32.9102 66.1855 31.1035 67.4551 29.4434C68.7572 27.7507 70.2546 26.3021 71.9473 25.0977C73.6074 23.8932 75.4466 22.9492 77.4648 22.2656C79.4831 21.5495 81.6478 21.1914 83.959 21.1914C86.9863 21.1914 89.5905 21.6797 91.7715 22.6562C93.985 23.6328 95.8079 24.9837 97.2402 26.709C98.6725 28.4668 99.7305 30.5501 100.414 32.959C101.13 35.3678 101.488 37.9883 101.488 40.8203L101.537 75H98.8516V40.8203C98.819 38.3464 98.5098 36.0677 97.9238 33.9844C97.3704 31.8685 96.4915 30.0456 95.2871 28.5156C94.0827 27.0182 92.5365 25.8464 90.6484 25C88.7604 24.1536 86.4818 23.7467 83.8125 23.7793C81.4362 23.8118 79.1738 24.2839 77.0254 25.1953C74.877 26.1068 72.9401 27.3275 71.2148 28.8574C69.4896 30.3874 68.0247 32.1777 66.8203 34.2285C65.6159 36.2793 64.7695 38.444 64.2812 40.7227V75H61.5957Z" fill="white"/>
<path d="M119.994 48.0469C119.994 45.0846 120.32 42.1061 120.971 39.1113C121.654 36.084 122.761 33.252 124.291 30.6152C125.886 27.946 128.035 25.7161 130.736 23.9258C133.438 22.1029 136.824 21.1914 140.893 21.1914C142.585 21.1914 144.245 21.4355 145.873 21.9238C147.533 22.3796 149.096 23.0469 150.561 23.9258C152.025 24.8047 153.376 25.8626 154.613 27.0996C155.85 28.3366 156.908 29.7038 157.787 31.2012V22.168H160.473V74.2676C160.473 77.2949 160.017 80.1432 159.105 82.8125C158.227 85.4818 156.941 87.8092 155.248 89.7949C153.555 91.8131 151.472 93.3919 148.998 94.5312C146.557 95.7031 143.725 96.2891 140.502 96.2891C138.419 96.2891 136.433 95.9961 134.545 95.4102C132.657 94.8568 130.899 94.0592 129.271 93.0176C128.165 92.3014 127.09 91.4714 126.049 90.5273C125.04 89.5833 124.096 88.5417 123.217 87.4023L125.072 85.6445C125.854 86.5885 126.667 87.4674 127.514 88.2812C128.393 89.1276 129.304 89.8763 130.248 90.5273C131.68 91.5039 133.243 92.2689 134.936 92.8223C136.628 93.4082 138.451 93.7012 140.404 93.7012C143.269 93.7012 145.775 93.1966 147.924 92.1875C150.105 91.1784 151.928 89.7949 153.393 88.0371C154.825 86.2793 155.899 84.2122 156.615 81.8359C157.364 79.4922 157.755 76.9694 157.787 74.2676V67.1875C156.876 68.5872 155.769 69.8405 154.467 70.9473C153.197 72.0215 151.814 72.9329 150.316 73.6816C148.819 74.4303 147.257 75 145.629 75.3906C144.001 75.7812 142.39 75.9766 140.795 75.9766C137.051 75.9766 133.91 75.1953 131.371 73.6328C128.832 72.0703 126.716 70.0684 125.023 67.627C123.233 65.0553 121.947 62.1094 121.166 58.7891C120.385 55.4688 119.994 52.2298 119.994 49.0723V48.0469ZM122.68 49.0723C122.745 51.9043 123.103 54.8503 123.754 57.9102C124.438 60.9375 125.528 63.6068 127.025 65.918C128.327 68.099 130.134 69.8893 132.445 71.2891C134.757 72.6562 137.523 73.3398 140.746 73.3398C142.504 73.3398 144.262 73.0957 146.02 72.6074C147.777 72.1191 149.438 71.403 151 70.459C152.53 69.515 153.881 68.3594 155.053 66.9922C156.257 65.5924 157.169 63.9974 157.787 62.207V36.7676C157.201 34.847 156.355 33.1055 155.248 31.543C154.141 29.9479 152.855 28.5807 151.391 27.4414C149.893 26.3021 148.249 25.4232 146.459 24.8047C144.669 24.1536 142.797 23.8281 140.844 23.8281C137.198 23.8281 134.187 24.6582 131.811 26.3184C129.467 27.9785 127.628 30.013 126.293 32.4219C124.991 34.7005 124.063 37.2233 123.51 39.9902C122.956 42.7572 122.68 45.4427 122.68 48.0469V49.0723Z" fill="white"/>
<path d="M183.031 0H205.248V72.3633H223.803V75H183.031V72.3633H202.611V2.63672H183.031V0Z" fill="white"/>
<path d="M243.09 22.168H265.111V72.3633H283.861V75H243.09V72.3633H262.475V24.8047H243.09V22.168ZM260.229 7.12891C260.229 6.67318 260.277 6.23372 260.375 5.81055C260.473 5.35482 260.652 4.94792 260.912 4.58984C261.173 4.26432 261.514 4.00391 261.938 3.80859C262.393 3.61328 262.963 3.51562 263.646 3.51562C264.298 3.51562 264.835 3.61328 265.258 3.80859C265.714 4.00391 266.088 4.26432 266.381 4.58984C266.641 4.94792 266.82 5.35482 266.918 5.81055C267.048 6.23372 267.113 6.67318 267.113 7.12891C267.113 8.00781 266.853 8.80534 266.332 9.52148C265.844 10.2376 264.949 10.5957 263.646 10.5957C262.312 10.5957 261.4 10.2376 260.912 9.52148C260.456 8.80534 260.229 8.00781 260.229 7.12891Z" fill="white"/>
<path d="M340.453 62.0605C340.453 60.0749 339.932 58.3659 338.891 56.9336C337.882 55.5013 336.612 54.3132 335.082 53.3691C333.292 52.2624 331.241 51.3672 328.93 50.6836C326.618 49.9674 324.551 49.4141 322.729 49.0234C320.385 48.5352 318.204 48.0143 316.186 47.4609C314.167 46.9076 312.084 46.0938 309.936 45.0195C308.08 44.0755 306.518 42.7572 305.248 41.0645C303.979 39.3392 303.344 37.1582 303.344 34.5215C303.344 32.1126 303.962 30.0618 305.199 28.3691C306.436 26.6439 308.048 25.2279 310.033 24.1211C311.791 23.1445 313.793 22.4121 316.039 21.9238C318.318 21.4355 320.466 21.1914 322.484 21.1914C324.958 21.1914 327.383 21.4681 329.76 22.0215C332.136 22.5749 334.285 23.4538 336.205 24.6582C338.093 25.8626 339.656 27.4251 340.893 29.3457C342.13 31.2337 342.846 33.5449 343.041 36.2793H340.307C340.242 34.0332 339.639 32.1289 338.5 30.5664C337.361 28.9714 335.928 27.6693 334.203 26.6602C332.445 25.6836 330.525 24.9674 328.441 24.5117C326.391 24.056 324.405 23.8281 322.484 23.8281C320.857 23.8281 319.083 24.0072 317.162 24.3652C315.274 24.6908 313.5 25.2604 311.84 26.0742C310.18 26.888 308.78 27.9785 307.641 29.3457C306.534 30.6803 305.98 32.373 305.98 34.4238C305.98 36.4421 306.485 38.1673 307.494 39.5996C308.536 41.0319 309.936 42.1875 311.693 43.0664C313.484 44.043 315.469 44.8079 317.65 45.3613C319.864 45.9147 321.833 46.3704 323.559 46.7285C325.642 47.1842 327.823 47.7539 330.102 48.4375C332.413 49.1211 334.545 50.0326 336.498 51.1719C338.419 52.3112 339.997 53.7598 341.234 55.5176C342.471 57.2754 343.09 59.4727 343.09 62.1094C343.09 64.3229 342.569 66.2598 341.527 67.9199C340.518 69.5475 339.298 70.8659 337.865 71.875C335.717 73.3724 333.292 74.4303 330.59 75.0488C327.888 75.6673 325.333 75.9766 322.924 75.9766C320.515 75.9766 318.041 75.6999 315.502 75.1465C312.995 74.5931 310.733 73.763 308.715 72.6562C306.664 71.5169 304.988 70.0358 303.686 68.2129C302.383 66.39 301.635 64.1764 301.439 61.5723H304.125C304.385 63.8835 305.134 65.804 306.371 67.334C307.641 68.8314 309.171 70.0195 310.961 70.8984C312.719 71.8099 314.656 72.4447 316.771 72.8027C318.887 73.1608 320.938 73.3398 322.924 73.3398C325.17 73.3398 327.449 73.0631 329.76 72.5098C332.071 71.9238 334.203 70.9961 336.156 69.7266C337.491 68.7826 338.533 67.6921 339.281 66.4551C340.062 65.1855 340.453 63.7207 340.453 62.0605Z" fill="white"/>
<path d="M364.623 34.9121C365.469 32.959 366.544 31.1523 367.846 29.4922C369.148 27.7995 370.645 26.3346 372.338 25.0977C373.998 23.8932 375.837 22.9492 377.855 22.2656C379.874 21.5495 382.038 21.1914 384.35 21.1914C387.377 21.1914 389.997 21.6797 392.211 22.6562C394.424 23.6328 396.247 24.9837 397.68 26.709C399.112 28.4668 400.17 30.5501 400.854 32.959C401.57 35.3678 401.944 37.9883 401.977 40.8203V75H399.291V40.8203C399.258 38.3464 398.949 36.0677 398.363 33.9844C397.81 31.8685 396.931 30.0456 395.727 28.5156C394.49 27.0182 392.927 25.8464 391.039 25C389.151 24.1536 386.872 23.7467 384.203 23.7793C381.827 23.8118 379.564 24.2839 377.416 25.1953C375.268 26.1068 373.331 27.3275 371.605 28.8574C369.848 30.3874 368.367 32.1777 367.162 34.2285C365.958 36.2793 365.111 38.444 364.623 40.7227V75H361.938V0H364.623V34.9121Z" fill="white"/>
</svg>
