<svg width="167" height="76" viewBox="0 0 167 76" fill="none" xmlns="http://www.w3.org/2000/svg">
<path d="M39.1602 55.1758H12.1582L5.85938 75H0L23.0957 3.90625H28.3691L51.3184 75H45.459L39.1602 55.1758ZM13.8184 49.9512H37.5488L25.7324 12.6953L13.8184 49.9512Z" fill="#254279"/>
<path d="M107.422 49.1211C107.389 51.3021 107.21 53.4668 106.885 55.6152C106.559 57.7311 106.055 59.7493 105.371 61.6699C104.59 63.8835 103.564 65.918 102.295 67.7734C101.058 69.5964 99.5768 71.1589 97.8516 72.4609C96.3216 73.5352 94.6289 74.3815 92.7734 75C90.918 75.651 88.8672 75.9766 86.6211 75.9766C84.668 75.9766 82.8125 75.7324 81.0547 75.2441C79.3294 74.7884 77.7181 74.1211 76.2207 73.2422C75.0814 72.5911 74.0234 71.8424 73.0469 70.9961C72.1029 70.1172 71.2565 69.1406 70.5078 68.0664L70.2637 75H64.8438V0H70.6543V29.4922C71.4681 28.2878 72.4121 27.181 73.4863 26.1719C74.5605 25.1628 75.7161 24.3001 76.9531 23.584C78.3529 22.8353 79.8503 22.2493 81.4453 21.8262C83.0404 21.403 84.7331 21.1914 86.5234 21.1914C88.9323 21.1914 91.1296 21.5332 93.1152 22.2168C95.1009 22.9004 96.8587 23.8444 98.3887 25.0488C99.8535 26.2207 101.139 27.6204 102.246 29.248C103.353 30.8431 104.297 32.6009 105.078 34.5215C105.859 36.5397 106.429 38.7044 106.787 41.0156C107.178 43.3268 107.389 45.6868 107.422 48.0957V49.1211ZM101.562 48.0957C101.53 46.3704 101.4 44.6452 101.172 42.9199C100.944 41.1621 100.586 39.4857 100.098 37.8906C99.5117 36.1328 98.7467 34.5052 97.8027 33.0078C96.8913 31.4779 95.752 30.2083 94.3848 29.1992C93.2454 28.3203 91.9271 27.6204 90.4297 27.0996C88.9648 26.5788 87.3047 26.3184 85.4492 26.3184C83.6589 26.3184 81.9824 26.5788 80.4199 27.0996C78.89 27.6204 77.5065 28.3366 76.2695 29.248C75 30.1921 73.877 31.3151 72.9004 32.6172C71.9564 33.8867 71.2077 35.2865 70.6543 36.8164V61.1816C71.2402 62.679 72.0378 64.0299 73.0469 65.2344C74.056 66.4062 75.2116 67.4154 76.5137 68.2617C77.7832 69.1081 79.1829 69.7591 80.7129 70.2148C82.2754 70.638 83.8867 70.8496 85.5469 70.8496C87.4349 70.8496 89.1276 70.5892 90.625 70.0684C92.1549 69.515 93.4896 68.75 94.6289 67.7734C95.931 66.7318 97.0378 65.4622 97.9492 63.9648C98.8607 62.4674 99.5931 60.8398 100.146 59.082C100.635 57.5195 100.977 55.8919 101.172 54.1992C101.4 52.5065 101.53 50.8138 101.562 49.1211V48.0957Z" fill="#254279"/>
<path d="M145.996 70.9961C147.949 70.9961 149.805 70.7194 151.562 70.166C153.353 69.5801 154.948 68.75 156.348 67.6758C157.715 66.6016 158.822 65.3158 159.668 63.8184C160.514 62.2884 161.019 60.5794 161.182 58.6914H166.748C166.585 61.1654 165.918 63.4603 164.746 65.5762C163.607 67.6921 162.093 69.515 160.205 71.0449C158.317 72.6074 156.152 73.8281 153.711 74.707C151.27 75.5534 148.698 75.9766 145.996 75.9766C142.155 75.9766 138.802 75.2441 135.938 73.7793C133.073 72.3145 130.68 70.3451 128.76 67.8711C126.839 65.4622 125.407 62.679 124.463 59.5215C123.519 56.3314 123.031 53.0273 122.998 49.6094V47.5586C123.031 44.1732 123.519 40.8854 124.463 37.6953C125.407 34.5052 126.839 31.6895 128.76 29.248C130.648 26.8066 133.024 24.8535 135.889 23.3887C138.753 21.9238 142.106 21.1914 145.947 21.1914C148.91 21.1914 151.628 21.6634 154.102 22.6074C156.608 23.5189 158.773 24.8047 160.596 26.4648C162.419 28.125 163.867 30.1107 164.941 32.4219C166.016 34.7331 166.618 37.2396 166.748 39.9414H161.182C161.051 37.9557 160.579 36.1328 159.766 34.4727C158.984 32.7799 157.926 31.3151 156.592 30.0781C155.225 28.8737 153.63 27.9297 151.807 27.2461C150.016 26.5625 148.063 26.2207 145.947 26.2207C142.887 26.2207 140.267 26.8392 138.086 28.0762C135.938 29.3132 134.18 30.9245 132.812 32.9102C131.445 34.9609 130.436 37.2559 129.785 39.7949C129.167 42.334 128.857 44.9219 128.857 47.5586V49.6094C128.857 52.2786 129.167 54.8991 129.785 57.4707C130.436 60.0098 131.445 62.2721 132.812 64.2578C134.18 66.276 135.938 67.9036 138.086 69.1406C140.267 70.3776 142.904 70.9961 145.996 70.9961Z" fill="#254279"/>
<path d="M41.6934 53.7598H11.4688L4.53516 75H1.80078L25.0918 3.90625H28.1191L51.4102 75H48.6758L41.6934 53.7598ZM12.2988 51.123H40.8633L26.6055 7.51953L12.2988 51.123Z" fill="white"/>
<path d="M107.318 49.0723C107.286 51.123 107.107 53.2227 106.781 55.3711C106.456 57.487 105.951 59.5378 105.268 61.5234C104.584 63.5091 103.689 65.3809 102.582 67.1387C101.508 68.8965 100.206 70.4264 98.6758 71.7285C97.1133 73.0306 95.3229 74.0723 93.3047 74.8535C91.319 75.6022 89.0566 75.9766 86.5176 75.9766C84.9225 75.9766 83.3112 75.7812 81.6836 75.3906C80.056 75 78.4935 74.4303 76.9961 73.6816C75.4661 72.9329 74.0501 72.0215 72.748 70.9473C71.4785 69.8405 70.388 68.5872 69.4766 67.1875V75H66.8398V0H69.4766V31.1523C70.3555 29.6549 71.4134 28.2878 72.6504 27.0508C73.8874 25.8138 75.2383 24.7559 76.7031 23.877C78.168 23.0306 79.7142 22.3796 81.3418 21.9238C83.002 21.4355 84.6947 21.1914 86.4199 21.1914C88.9915 21.1914 91.2865 21.5658 93.3047 22.3145C95.3555 23.0632 97.1458 24.0723 98.6758 25.3418C100.206 26.6439 101.508 28.1738 102.582 29.9316C103.689 31.6895 104.6 33.5612 105.316 35.5469C106 37.5326 106.488 39.5996 106.781 41.748C107.107 43.8639 107.286 45.9635 107.318 48.0469V49.0723ZM104.584 48.0469C104.551 46.2565 104.405 44.4173 104.145 42.5293C103.884 40.6087 103.477 38.7533 102.924 36.9629C102.338 35.1725 101.589 33.4798 100.678 31.8848C99.7663 30.2897 98.6432 28.89 97.3086 27.6855C95.9414 26.5137 94.3626 25.5859 92.5723 24.9023C90.8145 24.1862 88.7799 23.8281 86.4688 23.8281C84.5156 23.8281 82.6439 24.1374 80.8535 24.7559C79.0631 25.3743 77.4355 26.2533 75.9707 27.3926C74.4733 28.5319 73.1549 29.8991 72.0156 31.4941C70.9089 33.0566 70.0625 34.7819 69.4766 36.6699V62.2559C70.0951 64.0462 71.0065 65.6413 72.2109 67.041C73.4479 68.4082 74.8314 69.5638 76.3613 70.5078C77.8913 71.4518 79.5352 72.168 81.293 72.6562C83.0508 73.112 84.8086 73.3398 86.5664 73.3398C88.8451 73.3398 90.8796 72.998 92.6699 72.3145C94.4603 71.5983 96.0228 70.638 97.3574 69.4336C98.6595 68.2292 99.7663 66.8294 100.678 65.2344C101.622 63.6393 102.387 61.9466 102.973 60.1562C103.526 58.3659 103.917 56.5267 104.145 54.6387C104.405 52.7507 104.551 50.8952 104.584 49.0723V48.0469Z" fill="white"/>
<path d="M146.723 73.3398C148.969 73.3398 151.085 73.0306 153.07 72.4121C155.089 71.7936 156.879 70.8659 158.441 69.6289C159.971 68.4245 161.225 66.9271 162.201 65.1367C163.178 63.3464 163.796 61.2956 164.057 58.9844H166.693C166.433 61.6211 165.733 63.9974 164.594 66.1133C163.454 68.1966 162.006 69.9707 160.248 71.4355C158.458 72.9004 156.391 74.0234 154.047 74.8047C151.736 75.5859 149.294 75.9766 146.723 75.9766C143.012 75.9766 139.773 75.2279 137.006 73.7305C134.271 72.2331 131.993 70.2474 130.17 67.7734C128.347 65.332 126.98 62.5326 126.068 59.375C125.189 56.2174 124.734 52.9622 124.701 49.6094V47.5586C124.734 44.2383 125.189 40.9993 126.068 37.8418C126.98 34.6517 128.347 31.8197 130.17 29.3457C131.96 26.9043 134.223 24.9349 136.957 23.4375C139.691 21.9401 142.914 21.1914 146.625 21.1914C149.392 21.1914 151.947 21.6309 154.291 22.5098C156.667 23.3887 158.734 24.6257 160.492 26.2207C162.25 27.8483 163.666 29.8014 164.74 32.0801C165.814 34.3262 166.465 36.8327 166.693 39.5996H164.057C163.861 37.2233 163.292 35.0749 162.348 33.1543C161.404 31.2012 160.167 29.5247 158.637 28.125C157.074 26.7578 155.268 25.6999 153.217 24.9512C151.199 24.2025 149.001 23.8281 146.625 23.8281C143.272 23.8281 140.391 24.5117 137.982 25.8789C135.574 27.2135 133.588 28.9876 132.025 31.2012C130.43 33.4473 129.258 36.0026 128.51 38.8672C127.761 41.6992 127.37 44.5964 127.338 47.5586V49.6094C127.37 52.6367 127.761 55.5664 128.51 58.3984C129.258 61.2305 130.43 63.7533 132.025 65.9668C133.588 68.1803 135.574 69.9707 137.982 71.3379C140.424 72.6725 143.337 73.3398 146.723 73.3398Z" fill="white"/>
</svg>
