<svg width="88" height="88" viewBox="0 0 88 88" fill="none" xmlns="http://www.w3.org/2000/svg">
<path d="M21.8005 21.6647C21.8417 21.6707 21.9197 21.6807 21.9576 21.6927C22.0066 21.7081 22.0659 21.7344 22.0876 21.7837C22.1953 22.029 22.19 23.8519 22.0732 24.1245C22.0339 24.1217 21.9497 24.1171 21.9135 24.108C21.8672 24.0964 21.8192 24.0705 21.7979 24.0268C21.6794 23.7828 21.7318 21.9664 21.8005 21.6647Z" fill="#010001"/>
<path d="M21.7967 26.2026C21.8435 26.2058 21.9108 26.2054 21.9571 26.219C22.0148 26.2358 22.0763 26.2525 22.1047 26.3089C22.2375 26.5714 22.1953 28.3449 22.0949 28.6729C22.0776 28.6712 22.0603 28.6702 22.0431 28.6678C21.9694 28.6571 21.8643 28.6317 21.8238 28.5627C21.6717 28.3035 21.7235 26.521 21.7967 26.2026Z" fill="#010001"/>
<path d="M21.7995 39.8879C21.8921 39.8942 21.9627 39.8945 22.0484 39.9339C22.1097 39.9621 22.1223 39.9899 22.1411 40.0553C22.2386 40.3948 22.2097 42.0902 22.054 42.3733C21.9605 42.358 21.8978 42.335 21.8143 42.2904C21.6702 41.9376 21.7513 40.3157 21.7995 39.8879Z" fill="#010001"/>
<path d="M21.9486 30.6931C21.9945 30.7281 22.0374 30.7718 22.0801 30.8108C22.2466 31.2308 22.1768 31.9167 22.1722 32.3705C22.169 32.683 22.2156 32.9665 21.9821 33.1959C21.9235 33.1636 21.8785 33.1306 21.8262 33.0894C21.6435 32.6396 21.7127 31.5853 21.7486 31.0863C21.7638 30.8767 21.7962 30.8255 21.9486 30.6931Z" fill="#010001"/>
<path d="M21.7469 35.2596C21.8755 35.2616 21.9783 35.2527 22.089 35.3288C22.2568 35.6375 22.1601 37.2712 22.132 37.6885C22.0162 37.6985 21.9363 37.7126 21.8312 37.6504C21.671 37.4214 21.7077 35.6213 21.7469 35.2596Z" fill="#010001"/>
<path d="M34.3739 12.9551L34.8671 12.9536L50.934 12.942L55.245 12.9439C56.0658 12.9445 56.9763 12.8738 57.7852 13.0142C58.6657 13.1671 59.5089 13.6657 60.1332 14.2941C61.4524 15.6223 61.3623 17.0659 61.3594 18.7919C62.3101 18.8169 63.2618 18.7992 64.2128 18.8009C65.5442 18.8033 66.7229 19.0854 67.6869 20.0645C68.3102 20.6974 68.811 21.5986 68.9451 22.483C69.0967 23.4831 69.0001 25.0626 69.0001 26.1362L69.0046 33.2738L68.9989 58.998L71.6958 58.9912C72.1935 58.9901 72.7495 58.9384 73.2379 59.0314C73.5642 59.0936 73.8748 59.2248 74.1202 59.4531C74.4772 59.7851 74.6128 60.2523 74.6323 60.7266C74.6717 61.6821 74.6228 62.6586 74.6155 63.6158L74.6086 68.4072L74.6142 71.5645C74.6183 72.209 74.6663 72.8905 74.5859 73.5302C74.5369 73.9204 74.4421 74.2131 74.1624 74.5003C73.8704 74.8001 73.5258 74.9481 73.1143 74.9903C71.9033 75.1145 70.5708 75.0302 69.3441 75.0288L62.2126 75.0211L38.1677 75.0529L32.2224 75.0457C31.0881 75.043 29.4822 75.1605 28.4115 74.8971C27.6816 74.7176 27.0057 74.3088 26.4792 73.7758C25.2054 72.4862 25.1412 71.192 25.1602 69.4843L25.1662 67.3715C25.0398 67.3745 24.9134 67.3768 24.787 67.3783C23.4075 67.3927 22.0257 67.3756 20.6459 67.3753C19.5243 67.3752 17.9043 67.5048 16.8528 67.2265C16.0748 67.0206 15.3298 66.5559 14.7611 65.9923C14.1715 65.408 13.6407 64.5816 13.4529 63.7654C13.1957 62.648 13.3165 60.1561 13.3178 58.9102L13.3087 50.4921C13.3058 49.1447 13.6455 47.9296 14.6252 46.9578C16.0046 45.5896 17.4096 45.5968 19.2192 45.6057L21.7376 45.6081C21.7316 45.3361 21.6888 44.981 21.7759 44.7231C21.8143 44.6098 21.8497 44.5195 21.9576 44.4615L22.0364 44.5082C22.2223 44.8608 22.1816 45.2121 22.175 45.5976C23.1761 45.5957 24.2227 45.5303 25.2171 45.6279L25.2116 27.4864L25.1987 21.9454C25.1957 20.9126 25.1407 19.8508 25.2218 18.822C26.7604 18.7964 28.3035 18.8192 29.8426 18.8184C29.8517 18.0236 29.9366 17.1532 29.7954 16.3699C29.6237 15.4191 29.0698 14.6038 28.2787 14.0555C27.3764 13.4303 26.2288 13.2352 25.1586 13.4446C24.5697 13.5599 24.0183 13.838 23.5472 14.2061C21.2538 15.9981 22.5538 19.0011 22.0515 19.6162C22.0138 19.6623 21.9671 19.6574 21.9128 19.6681L21.8203 19.6031C21.7471 19.4331 21.735 19.2536 21.7331 19.0702C21.7137 17.2626 21.5294 15.6246 22.9131 14.234C22.9826 14.1636 23.0544 14.0958 23.1286 14.0305C23.2028 13.9652 23.2792 13.9025 23.3577 13.8425C23.4363 13.7826 23.5168 13.7254 23.5994 13.671C23.6819 13.6166 23.7662 13.5652 23.8524 13.5167C23.9385 13.4683 24.0262 13.4229 24.1155 13.3805C24.2048 13.3382 24.2955 13.299 24.3875 13.263C24.4796 13.2269 24.5727 13.1942 24.667 13.1647C24.7614 13.1351 24.8567 13.1089 24.9528 13.086C25.9407 12.8492 27.6182 12.9688 28.6776 12.9689L34.3739 12.9551Z" fill="#010001"/>
<path d="M27.8248 13.3403C30.8887 13.2904 33.9609 13.3354 37.0259 13.3304L56.6709 13.3486C57.9276 13.3545 58.9763 13.6701 59.8783 14.5928C61.053 15.7944 60.9753 17.2371 60.9596 18.793C59.5286 18.8556 58.0801 18.8161 56.6474 18.8091L50.5711 18.8021L30.2459 18.8187C30.2217 17.7991 30.3534 16.7445 30.0439 15.7553C29.6872 14.6152 28.8589 13.8758 27.8248 13.3403Z" fill="white"/>
<path d="M17.9757 45.9972C19.4162 45.9652 20.8617 45.9895 22.3027 45.9879C23.2407 45.987 24.3161 45.8822 25.2357 46.0633C25.9524 46.2044 26.6986 46.5306 27.2681 46.991C27.3244 47.0366 27.3795 47.0835 27.4335 47.1318C27.4874 47.1802 27.5401 47.2298 27.5916 47.2808C27.6431 47.3317 27.6932 47.384 27.7421 47.4374C27.7909 47.4909 27.8384 47.5455 27.8845 47.6014C27.9307 47.6572 27.9754 47.7141 28.0186 47.7722C28.0619 47.8303 28.1037 47.8894 28.144 47.9495C28.1844 48.0097 28.2232 48.0709 28.2605 48.1329C28.2978 48.195 28.3335 48.258 28.3675 48.3219C28.4017 48.3858 28.4342 48.4504 28.4652 48.5159C28.496 48.5815 28.5253 48.6477 28.5529 48.7146C28.5805 48.7816 28.6064 48.8492 28.6306 48.9174C28.6548 48.9857 28.6773 49.0546 28.6981 49.1239C28.7189 49.1933 28.7379 49.2632 28.7552 49.3335C28.7725 49.4038 28.788 49.4745 28.8018 49.5456C28.8156 49.6167 28.8276 49.6881 28.8378 49.7599C28.848 49.8315 28.8564 49.9034 28.863 49.9756C28.9441 50.8758 28.9043 51.8088 28.9085 52.7133L28.9159 57.7374L28.9154 61.1072C28.9152 61.7967 28.9608 62.5263 28.8515 63.2085C28.7317 63.9562 28.3658 64.7823 27.8741 65.3588C27.0083 66.3739 25.8724 66.9064 24.556 67.0137C24.5291 67.0166 24.5022 67.0186 24.4751 67.0197C23.1938 67.0728 21.8994 67.0285 20.6166 67.0282C19.5809 67.0278 18.2494 67.1583 17.2489 66.9335C17.1508 66.9116 17.0536 66.8866 16.9572 66.8583C16.8608 66.83 16.7654 66.7986 16.671 66.7641C16.5767 66.7295 16.4835 66.6919 16.3916 66.6513C16.2997 66.6107 16.2093 66.5671 16.1202 66.5205C16.0312 66.4739 15.9438 66.4245 15.858 66.3723C15.7723 66.32 15.6883 66.2649 15.6061 66.2071C15.5239 66.1493 15.4437 66.0889 15.3655 66.0258C15.2873 65.9628 15.2112 65.8972 15.1373 65.8292C14.2257 64.9839 13.7389 63.7988 13.6941 62.5674C13.6619 61.6827 13.6924 60.7911 13.689 59.9055C13.6686 57.8372 13.6708 55.7689 13.6953 53.7006L13.6984 51.1923C13.6986 50.5856 13.6647 49.957 13.7794 49.3583C13.7969 49.2631 13.8177 49.1686 13.842 49.0748C13.8661 48.9811 13.8937 48.8883 13.9245 48.7965C13.9554 48.7047 13.9894 48.6142 14.0267 48.5248C14.064 48.4355 14.1045 48.3475 14.1481 48.261C14.1916 48.1746 14.2382 48.0898 14.2879 48.0067C14.3375 47.9235 14.39 47.8423 14.4455 47.7629C14.5009 47.6835 14.5591 47.6061 14.62 47.5309C14.681 47.4557 14.7446 47.3827 14.8107 47.312C15.6503 46.4239 16.7786 46.0349 17.9757 45.9972Z" fill="white"/>
<path d="M17.8907 57.4598C17.8862 57.3862 17.8883 57.2892 17.8518 57.222C17.7064 56.9546 17.3653 56.677 17.1633 56.4372C17.1203 56.3857 17.0783 56.3333 17.0374 56.2801C16.9965 56.227 16.9567 56.173 16.9179 56.1183C16.8792 56.0636 16.8415 56.008 16.805 55.9518C16.7684 55.8955 16.733 55.8385 16.6988 55.7809C16.6646 55.7232 16.6315 55.6648 16.5995 55.6058C16.5676 55.5468 16.5369 55.4871 16.5074 55.4269C16.4778 55.3667 16.4495 55.3059 16.4224 55.2445C16.3953 55.1831 16.3694 55.1212 16.3448 55.0588C16.3202 54.9964 16.2968 54.9335 16.2747 54.8702C16.2526 54.8069 16.2318 54.7431 16.2123 54.679C16.1927 54.6147 16.1744 54.5502 16.1574 54.4853C16.1405 54.4204 16.1248 54.3552 16.1104 54.2897C16.096 54.2241 16.083 54.1583 16.0713 54.0923C16.0596 54.0262 16.0491 53.96 16.04 53.8935C16.031 53.827 16.0232 53.7604 16.0168 53.6936C16.0104 53.6268 16.0053 53.5599 16.0016 53.4929C15.9214 52.1291 16.3473 50.7717 17.2627 49.7467C18.2035 48.6931 19.5238 47.9457 20.9527 47.8751C22.2944 47.8088 23.6723 48.322 24.6596 49.2302C25.69 50.1781 26.3444 51.5902 26.391 52.9892C26.4551 54.9058 25.7446 56.0161 24.4835 57.3551L24.4942 57.6108C24.4175 60.1251 24.4592 62.6669 24.4952 65.1823C23.9427 64.6667 23.3712 64.1706 22.8251 63.6483C22.2387 63.0874 21.6707 62.4966 21.0533 61.9696C20.0354 62.9955 18.9745 63.9728 17.9517 64.9909C17.9471 62.5529 17.8876 60.1125 17.9291 57.6747L17.8907 57.4598Z" fill="#EE5F59"/>
<path d="M17.8907 57.4598L17.9263 57.2819L17.9778 57.2549C18.6186 57.6568 19.2043 58.1072 19.9491 58.3015C20.1525 58.3546 20.3553 58.429 20.4928 58.5965L20.4984 58.6696C20.1249 58.8046 19.4596 58.5611 19.1108 58.3944C18.7073 58.2016 18.3191 57.8326 17.9292 57.6747L17.8907 57.4598Z" fill="#010001"/>
<path d="M24.4943 57.6107C24.3332 57.7169 24.1904 57.8563 24.0341 57.9708C23.4176 58.4225 22.8337 58.6459 22.0772 58.7609C21.9395 58.7818 21.8623 58.7833 21.7494 58.7003C21.7451 58.6007 21.7445 58.5817 21.7903 58.4941C22.2083 58.2865 22.714 58.2572 23.1537 58.0708C23.5879 57.8867 24.0892 57.3997 24.4835 57.355L24.4943 57.6107Z" fill="#010001"/>
<path d="M20.7974 50.0695C21.5101 49.9938 22.2181 50.1363 22.8247 50.5253C23.512 50.9661 24.028 51.6904 24.199 52.4903C24.2093 52.5398 24.2183 52.5896 24.2262 52.6396C24.234 52.6896 24.2406 52.7397 24.2459 52.7901C24.2513 52.8404 24.2554 52.8908 24.2583 52.9413C24.2612 52.9919 24.2629 53.0424 24.2633 53.093C24.2637 53.1437 24.2628 53.1943 24.2608 53.2448C24.2587 53.2954 24.2553 53.3459 24.2508 53.3963C24.2462 53.4467 24.2404 53.4969 24.2334 53.547C24.2264 53.5972 24.2181 53.6471 24.2086 53.6968C24.1992 53.7465 24.1885 53.7959 24.1766 53.8451C24.1646 53.8943 24.1515 53.9432 24.1372 53.9918C24.1229 54.0403 24.1074 54.0884 24.0907 54.1362C24.074 54.184 24.0562 54.2313 24.0372 54.2783C24.0182 54.3251 23.9981 54.3715 23.9768 54.4175C23.9555 54.4634 23.9331 54.5087 23.9096 54.5535C23.8861 54.5984 23.8615 54.6426 23.8357 54.6862C23.8101 54.7298 23.7833 54.7728 23.7556 54.815C23.2479 55.5947 22.5455 56 21.6512 56.1914C20.8732 56.2842 20.1731 56.1481 19.5107 55.7179C19.4681 55.6901 19.4261 55.6612 19.385 55.6314C19.3437 55.6015 19.3032 55.5707 19.2635 55.5388C19.2238 55.507 19.1848 55.4742 19.1467 55.4405C19.1086 55.4067 19.0713 55.3721 19.0348 55.3366C18.9984 55.3011 18.9629 55.2647 18.9282 55.2274C18.8935 55.1901 18.8598 55.1521 18.827 55.1132C18.7941 55.0742 18.7622 55.0345 18.7313 54.994C18.7004 54.9536 18.6706 54.9124 18.6417 54.8706C18.6127 54.8286 18.5849 54.786 18.5581 54.7428C18.5312 54.6995 18.5055 54.6556 18.4808 54.6111C18.4561 54.5666 18.4325 54.5215 18.41 54.4758C18.3875 54.4302 18.3662 54.384 18.3459 54.3373C18.3257 54.2906 18.3065 54.2434 18.2886 54.1958C18.2706 54.1482 18.2538 54.1001 18.2382 54.0517C18.2226 54.0032 18.2081 53.9545 18.1949 53.9053C18.1816 53.8561 18.1695 53.8067 18.1587 53.757C17.9898 52.9566 18.1896 52.1371 18.6392 51.4614C19.1483 50.6961 19.9061 50.2459 20.7974 50.0695Z" fill="#010001"/>
<path d="M21.1853 50.4197C21.8022 50.4507 22.3739 50.6116 22.8603 51.0062C22.8951 51.0339 22.9292 51.0625 22.9626 51.092C22.996 51.1214 23.0287 51.1517 23.0607 51.1827C23.0926 51.2137 23.1237 51.2455 23.1541 51.2781C23.1844 51.3107 23.2139 51.344 23.2427 51.3781C23.2714 51.4121 23.2992 51.4468 23.3262 51.4822C23.3532 51.5176 23.3793 51.5537 23.4045 51.5904C23.4297 51.6271 23.454 51.6644 23.4774 51.7023C23.5008 51.7402 23.5232 51.7787 23.5447 51.8177C23.5662 51.8567 23.5866 51.8962 23.6061 51.9362C23.6256 51.9763 23.6442 52.0167 23.6617 52.0576C23.6792 52.0986 23.6957 52.1399 23.7112 52.1817C23.7267 52.2234 23.7411 52.2655 23.7545 52.308C23.7679 52.3504 23.7803 52.3932 23.7916 52.4363C23.8029 52.4794 23.8131 52.5227 23.8222 52.5663C23.8314 52.6099 23.8395 52.6536 23.8465 52.6976C23.8535 52.7416 23.8594 52.7857 23.8642 52.83C23.8691 52.8752 23.8728 52.9205 23.8753 52.9658C23.8778 53.0112 23.8793 53.0566 23.8796 53.1021C23.8799 53.1476 23.879 53.193 23.8771 53.2384C23.8751 53.2838 23.8719 53.3291 23.8676 53.3744C23.8634 53.4196 23.858 53.4648 23.8515 53.5097C23.8449 53.5547 23.8373 53.5995 23.8285 53.6441C23.8197 53.6887 23.8098 53.7331 23.7988 53.7772C23.7878 53.8213 23.7757 53.8651 23.7624 53.9086C23.7493 53.9521 23.735 53.9952 23.7196 54.038C23.7042 54.0808 23.6878 54.1232 23.6703 54.1651C23.6528 54.207 23.6342 54.2485 23.6146 54.2895C23.5951 54.3306 23.5745 54.3711 23.5528 54.411C23.5312 54.451 23.5086 54.4904 23.485 54.5293C23.4614 54.5681 23.4369 54.6064 23.4114 54.644C23.3858 54.6816 23.3594 54.7186 23.3321 54.7549C23.3047 54.7911 23.2764 54.8267 23.2472 54.8616C22.7043 55.502 22.0345 55.784 21.2084 55.8472C20.5692 55.8101 20.0115 55.6437 19.5088 55.2377C18.9454 54.7827 18.5749 54.1334 18.5043 53.4101C18.4342 52.6914 18.6844 51.9953 19.1389 51.4427C19.6824 50.782 20.3449 50.4971 21.1853 50.4197Z" fill="white"/>
<path d="M60.8785 59.3841C60.8688 58.1077 60.7244 56.8673 61.4834 55.7548C62.0496 54.9251 62.9645 54.4059 63.9407 54.221C64.0047 54.209 64.069 54.1986 64.1335 54.1898C64.1981 54.181 64.2628 54.1739 64.3276 54.1683C64.3925 54.1628 64.4575 54.1588 64.5226 54.1565C64.5877 54.1542 64.6528 54.1535 64.7179 54.1545C64.783 54.1554 64.8481 54.158 64.913 54.1621C64.9781 54.1663 65.0429 54.1721 65.1076 54.1796C65.1723 54.187 65.2368 54.1961 65.301 54.2067C65.3653 54.2173 65.4292 54.2296 65.4929 54.2434C65.5564 54.2573 65.6197 54.2727 65.6826 54.2897C65.7455 54.3067 65.8078 54.3252 65.8698 54.3454C65.9317 54.3655 65.9931 54.3871 66.0539 54.4103C66.1148 54.4335 66.1751 54.4582 66.2347 54.4844C66.2943 54.5106 66.3533 54.5383 66.4115 54.5674C66.4697 54.5965 66.5272 54.6271 66.5839 54.6591C66.6406 54.6911 66.6965 54.7245 66.7516 54.7593C66.8066 54.7941 66.8608 54.8302 66.914 54.8678C67.7761 55.4703 68.3098 56.3541 68.4917 57.3866C68.679 58.026 68.5282 58.6974 68.6114 59.3469C68.8432 59.4354 69.2488 59.3857 69.497 59.3841L71.7975 59.3663C72.2371 59.3635 72.7041 59.3253 73.1377 59.3997C73.3454 59.4353 73.5482 59.5096 73.7204 59.6326C73.955 59.8001 74.1479 60.0891 74.1947 60.3752C74.3079 61.0663 74.2477 61.8433 74.2469 62.5452L74.2408 66.3563L74.239 70.9974C74.2379 71.8219 74.2884 72.689 74.2039 73.5086C74.1769 73.7697 74.1009 73.989 73.9364 74.1966C73.7227 74.4664 73.372 74.6088 73.0372 74.6453C72.1764 74.7394 71.2343 74.6666 70.3656 74.6642L65.1878 74.6603L59.2922 74.6698C58.2702 74.6713 57.1799 74.7455 56.1642 74.6311C55.8722 74.5982 55.5973 74.4524 55.3766 74.2604C55.0753 73.9986 54.9662 73.5482 54.9524 73.1649C54.9194 72.2492 54.951 71.3208 54.9522 70.4041L54.9531 65.2323L54.9517 62.1522C54.9516 61.6132 54.9078 61.0279 54.9778 60.4952C55.014 60.2192 55.1375 59.9886 55.3308 59.7895C55.5081 59.607 55.7224 59.4764 55.9716 59.4216C56.5535 59.2935 57.2426 59.3636 57.8366 59.3665L60.8785 59.3841Z" fill="white"/>
<path d="M68.4918 57.3866C68.679 58.026 68.5282 58.6974 68.6114 59.3469L68.5115 59.3045C68.4286 59.4193 68.4483 59.5166 68.4046 59.6436L68.3142 59.6144C68.3201 58.9063 68.2626 58.0564 68.4918 57.3866Z" fill="#ADBFD6"/>
<path d="M61.4118 64.0739C61.406 62.6875 61.4446 61.2902 61.3962 59.9053C61.3802 59.4501 61.2881 59.0011 61.273 58.5447C61.2354 57.4091 61.2974 56.4129 62.1196 55.5507C62.7504 54.8892 63.7021 54.4885 64.6143 54.4754C65.5713 54.4616 66.5315 54.9021 67.2024 55.574C67.5781 55.9502 67.8465 56.4079 67.9619 56.9288C68.0445 57.3023 68.0589 59.0026 67.9729 59.3389C67.9614 59.3837 67.877 59.4402 67.8682 59.4841C67.8074 59.791 67.869 60.3113 67.8683 60.6485L67.8548 64.0669C67.6281 64.1971 67.428 64.3128 67.2842 64.5414C67.1566 64.7442 67.1178 64.9703 67.1746 65.2032C67.1827 65.2358 67.1925 65.2679 67.2038 65.2995C67.2151 65.3312 67.2279 65.3622 67.2423 65.3926C67.2566 65.423 67.2724 65.4526 67.2897 65.4814C67.307 65.5103 67.3256 65.5382 67.3457 65.5651C67.3657 65.5921 67.387 65.6181 67.4095 65.643C67.4321 65.6679 67.4559 65.6916 67.4808 65.7141C67.5057 65.7367 67.5317 65.758 67.5586 65.778C67.5857 65.798 67.6136 65.8166 67.6424 65.8339C67.8616 65.964 68.1343 66.0045 68.379 65.9281C68.6077 65.8567 68.7804 65.6904 68.8908 65.4812C69.0055 65.2635 69.061 64.9863 68.981 64.7478C68.8652 64.4025 68.628 64.2343 68.3137 64.0865C68.3034 62.5958 68.3036 61.1051 68.3142 59.6144L68.4046 59.6436C69.4237 59.87 73.015 59.3647 73.5949 59.9698C73.7735 60.1562 73.8431 60.3785 73.8679 60.6296C73.9213 61.1675 73.8806 61.7337 73.8751 62.2747C73.8653 63.1693 73.8603 64.0639 73.8601 64.9585C73.8571 67.8287 73.9023 70.7041 73.8606 73.5737C73.7999 73.6748 73.7415 73.7796 73.6704 73.8736C73.5401 74.0455 73.3708 74.1668 73.155 74.1966C72.4742 74.2906 71.741 74.2335 71.0529 74.2321L67.3762 74.2358C64.9345 74.2494 62.4928 74.2467 60.0511 74.2276C58.8307 74.2275 57.4136 74.3071 56.226 74.2291C56.034 74.2165 55.827 74.1866 55.6741 74.0591C55.4059 73.8357 55.3245 73.5457 55.3067 73.2117C55.2664 72.4543 55.2988 71.68 55.3024 70.9213L55.3253 66.3769L55.3235 62.5112C55.3252 61.8759 55.2758 61.1923 55.3568 60.5653C55.3834 60.3602 55.4769 60.1053 55.6255 59.9561C55.7825 59.7986 56.055 59.7292 56.2684 59.7014C56.7781 59.6348 57.3408 59.6806 57.8571 59.6806L60.9602 59.6822L60.9594 64.0619C60.7721 64.1709 60.5772 64.2784 60.4415 64.4524C60.2641 64.6799 60.2425 64.9914 60.2912 65.2668C60.3312 65.4935 60.4326 65.6934 60.6308 65.8188C60.8476 65.9561 61.1383 65.9746 61.382 65.9091C61.417 65.8995 61.4514 65.888 61.4852 65.8748C61.519 65.8615 61.552 65.8466 61.5843 65.83C61.6166 65.8134 61.6479 65.7952 61.6784 65.7753C61.7087 65.7555 61.738 65.7341 61.7663 65.7113C61.7945 65.6885 61.8214 65.6642 61.8472 65.6385C61.8729 65.6129 61.8972 65.586 61.9202 65.5579C61.9431 65.5298 61.9646 65.5006 61.9846 65.4703C62.0045 65.4399 62.0228 65.4086 62.0396 65.3764C62.1444 65.1715 62.1705 64.9394 62.0858 64.7224C61.9625 64.406 61.7057 64.2159 61.4118 64.0739Z" fill="#6BA1D5"/>
<path d="M61.9605 59.3693L64.9647 59.3697C65.7693 59.3692 66.6179 59.2838 67.3937 59.4784C67.4291 59.4873 67.4603 59.4791 67.4943 59.4731L67.5038 59.5557C67.2545 59.7275 62.7282 59.6462 62.0747 59.6316C61.983 59.5517 61.9884 59.4838 61.9605 59.3693Z" fill="white"/>
<path d="M67.2987 58.3207C67.39 58.3537 67.3683 58.325 67.4008 58.3978C67.5131 58.6491 67.5109 59.1964 67.4943 59.4731C67.4603 59.4791 67.4291 59.4874 67.3937 59.4784C66.6179 59.2838 65.7693 59.3692 64.9647 59.3697L61.9605 59.3694C61.954 59.3549 61.9455 59.3411 61.941 59.3259C61.8883 59.1468 61.9473 58.6854 62.041 58.5244C62.0366 58.6745 62.0235 58.8271 62.0544 58.9748C62.6235 59.0454 63.2431 58.9969 63.8175 58.9968L67.2992 58.9949L67.2987 58.3207Z" fill="#010001"/>
<path d="M62.041 58.5243C62.2062 57.4651 61.8634 56.8565 62.8024 55.9491C63.3352 55.4344 64.0558 55.2309 64.7828 55.2455C65.4886 55.2597 66.1184 55.5033 66.6101 56.023C67.2581 56.708 67.317 57.4263 67.2987 58.3206L67.2992 58.9948L63.8175 58.9967C63.2431 58.9968 62.6235 59.0453 62.0543 58.9747C62.0235 58.827 62.0365 58.6744 62.041 58.5243Z" fill="white"/>
<path d="M25.5804 19.1864C28.7849 19.1321 31.998 19.1726 35.2033 19.1709L52.7111 19.1661L60.9959 19.17L63.4228 19.1682C64.0098 19.1684 64.614 19.1425 65.1964 19.2249C65.2601 19.2341 65.3235 19.2449 65.3866 19.2573C65.4497 19.2696 65.5125 19.2836 65.575 19.299C65.6374 19.3146 65.6994 19.3316 65.761 19.3501C65.8227 19.3686 65.8838 19.3887 65.9443 19.4103C66.005 19.4319 66.065 19.4549 66.1245 19.4795C66.1839 19.504 66.2428 19.53 66.301 19.5575C66.3591 19.585 66.4166 19.6139 66.4734 19.6442C66.5301 19.6745 66.5861 19.7062 66.6413 19.7392C66.6965 19.7723 66.7508 19.8067 66.8042 19.8424C66.8577 19.8782 66.9103 19.9152 66.9619 19.9536C67.0136 19.992 67.0643 20.0316 67.1139 20.0725C67.1636 20.1133 67.2123 20.1554 67.2599 20.1987C67.3075 20.242 67.354 20.2864 67.3993 20.332C67.4448 20.3776 67.489 20.4242 67.5321 20.472C67.5752 20.5198 67.6171 20.5686 67.6578 20.6184C67.6984 20.6683 67.7379 20.7191 67.776 20.7709C67.8346 20.8484 67.8904 20.9279 67.9434 21.0095C67.9965 21.0909 68.0465 21.1742 68.0936 21.2592C68.1407 21.3442 68.1848 21.4308 68.2258 21.5189C68.2668 21.6071 68.3047 21.6966 68.3393 21.7874C68.3741 21.8782 68.4055 21.9701 68.4336 22.0631C68.4618 22.1561 68.4867 22.25 68.5083 22.3448C68.5298 22.4396 68.548 22.535 68.5628 22.6311C68.5776 22.7272 68.589 22.8237 68.597 22.9205C68.6639 23.6756 68.6193 24.4627 68.619 25.2219L68.6176 29.4459L68.6221 42.7656L68.6258 52.2324L68.6263 55.0137C68.6255 55.4909 68.6646 56.0139 68.5993 56.4851C68.3918 55.93 68.1031 55.4267 67.681 55.0075C67.6295 54.9571 67.5767 54.908 67.5227 54.8602C67.4687 54.8125 67.4136 54.766 67.3572 54.7209C67.301 54.6759 67.2436 54.6322 67.1852 54.59C67.1268 54.5477 67.0673 54.507 67.0068 54.4677C66.9463 54.4284 66.885 54.3906 66.8226 54.3543C66.7603 54.3181 66.6971 54.2834 66.6331 54.2502C66.5691 54.2171 66.5042 54.1856 66.4386 54.1556C66.3731 54.1257 66.3067 54.0974 66.2397 54.0707C66.1727 54.044 66.1051 54.019 66.0369 53.9957C65.9687 53.9724 65.8999 53.9508 65.8306 53.9308C65.7613 53.9109 65.6916 53.8927 65.6214 53.8763C65.5511 53.8597 65.4806 53.845 65.4096 53.832C65.3387 53.819 65.2675 53.8078 65.1961 53.7983C65.1246 53.7888 65.0529 53.7811 64.9811 53.7751C64.9092 53.7692 64.8372 53.765 64.7651 53.7626C64.693 53.7602 64.621 53.7596 64.5489 53.7608C64.4792 53.7617 64.4095 53.7643 64.3399 53.7686C64.2703 53.7729 64.2009 53.7789 64.1316 53.7867C64.0623 53.7944 63.9933 53.8039 63.9245 53.8151C63.8557 53.8262 63.7871 53.8391 63.7189 53.8537C63.6507 53.8683 63.5829 53.8845 63.5156 53.9025C63.4482 53.9204 63.3813 53.9401 63.3149 53.9613C63.2485 53.9826 63.1827 54.0055 63.1174 54.03C63.0522 54.0545 62.9876 54.0806 62.9236 54.1084C62.8596 54.1362 62.7964 54.1655 62.7339 54.1964C62.6714 54.2272 62.6097 54.2596 62.5488 54.2936C62.4878 54.3275 62.4278 54.3629 62.3687 54.3999C62.3095 54.4368 62.2513 54.4751 62.1941 54.5149C62.1369 54.5548 62.0806 54.5959 62.0254 54.6385C61.9702 54.6811 61.9161 54.725 61.8631 54.7703C61.8101 54.8156 61.7582 54.8622 61.7075 54.91C61.6568 54.9579 61.6073 55.007 61.559 55.0573C60.4229 56.2272 60.4775 57.4611 60.4924 58.9889L57.6798 58.9794C57.1178 58.9778 56.4644 58.9127 55.9144 59.0373C55.5847 59.112 55.2694 59.2784 55.0298 59.5178C54.3711 60.1755 54.5855 61.5668 54.5959 62.4252L54.5902 69.5939C54.5886 70.7927 54.5405 72.0042 54.5857 73.2013C54.6111 73.872 54.7908 74.2201 55.281 74.675C54.3398 74.698 53.3932 74.6696 52.4515 74.6669L47.1743 74.6616L30.2872 74.6699C28.8893 74.6724 27.7571 74.5448 26.7229 73.5002C25.5119 72.277 25.5241 70.9923 25.5465 69.3912C25.5549 68.6923 25.5579 67.9934 25.5553 67.2945C25.7621 67.2288 25.9648 67.1526 26.1637 67.0659C26.3626 66.9793 26.5565 66.8827 26.7455 66.7762C27.938 66.1066 28.7367 65.1137 29.0981 63.7902C29.2046 63.4001 29.2489 63.0142 29.2708 62.6114C29.3214 61.6764 29.2939 60.7296 29.2943 59.7932L29.2946 55.0279L29.278 51.7473C29.2755 51.0891 29.3166 50.3905 29.2396 49.7381C29.1713 49.1596 28.9433 48.5368 28.6527 48.0334C27.9803 46.8689 26.8834 46.0992 25.6027 45.751L25.5964 28.566C25.5897 25.4436 25.5032 22.3072 25.5804 19.1864Z" fill="white"/>
<path d="M49.9404 52.6585C50.8464 52.6511 56.925 52.5487 57.3038 52.7132C56.8823 52.862 54.561 52.7765 53.9696 52.7792L46.9434 52.8125L42.1423 52.8082C41.3154 52.8079 40.4055 52.8972 39.5938 52.7441L39.609 52.7436L39.639 52.6988C40.8219 52.5998 42.0504 52.667 43.2396 52.668L49.9404 52.6585Z" fill="#1F62B8"/>
<path d="M53.6064 50.3636C54.245 50.3473 56.8066 50.2569 57.2509 50.3684L57.3252 50.4829C56.7812 50.6097 56.079 50.5311 55.5169 50.53L52.2053 50.5243L44.3059 50.5246C42.922 50.5248 41.5331 50.5481 40.1497 50.5196C39.9536 50.5317 39.7799 50.5324 39.594 50.4645L39.6522 50.3851C40.0088 50.2916 40.4717 50.3547 40.84 50.3643L49.1312 50.3628C50.6135 50.3637 52.1275 50.2956 53.6064 50.3636Z" fill="#6BA1D5"/>
<path d="M46.5615 48.2749L53.9146 48.2643L56.0102 48.2629C56.3044 48.2618 56.6179 48.2224 56.9093 48.2478C57.0414 48.2593 57.2308 48.3005 57.3294 48.3906C56.9928 48.5444 51.2681 48.4577 50.3728 48.4568C49.2575 48.46 39.7625 48.5016 39.6585 48.457C39.6356 48.4471 39.6178 48.4281 39.5974 48.4136L39.5887 48.347C39.847 48.2101 45.6956 48.2805 46.5615 48.2749Z" fill="#6BA1D5"/>
<path d="M46.6234 46.1598L53.9764 46.1492L56.072 46.1478C56.3662 46.1467 56.6797 46.1072 56.9711 46.1327C57.1032 46.1442 57.2926 46.1854 57.3913 46.2755C57.0546 46.4293 51.3299 46.3426 50.4346 46.3417C49.3193 46.3449 39.8243 46.3864 39.7204 46.3418C39.6974 46.332 39.6796 46.313 39.6593 46.2985L39.6506 46.2318C39.9088 46.0949 45.7575 46.1654 46.6234 46.1598Z" fill="#6BA1D5"/>
<path d="M48.2286 23.952C48.5069 24.1461 49.0185 25.7261 49.2052 26.1441C49.6944 26.2063 51.2413 26.1587 51.5654 26.3629L51.5625 26.436C51.16 26.8731 50.2584 27.4633 49.75 27.9201C49.8888 28.4362 50.4814 29.9636 50.4176 30.3413L50.3447 30.3731C49.919 30.2106 48.7888 29.2956 48.3167 28.9781C47.8173 29.2312 46.6342 30.2918 46.1979 30.3307C46.1174 30.338 46.148 30.3409 46.0808 30.2805C46.0885 29.8142 46.6172 28.4345 46.7589 27.8546C46.2028 27.3344 45.3598 26.8351 44.7376 26.3033C45.5778 26.2234 46.4295 26.2784 47.2667 26.1563C47.5644 25.5343 47.8078 24.4465 48.2286 23.952Z" fill="#ADBFD6"/>
<path d="M39.1941 23.9557C39.5492 24.2921 39.9774 25.6138 40.2264 26.1308C41.0637 26.2128 41.9082 26.2058 42.7468 26.2786C42.1494 26.9009 41.343 27.3073 40.6975 27.8765C40.7963 28.3142 41.4165 30.0669 41.3464 30.3598C41.0354 30.3668 39.6415 29.2949 39.2483 29.0754C39.2094 29.0722 39.1693 29.056 39.1314 29.0654C38.817 29.1438 37.5966 30.2087 37.0412 30.4574C37.211 29.6041 37.5166 28.7795 37.7056 27.9278C37.0949 27.3121 36.3149 26.8616 35.6766 26.2707C36.3952 26.1938 37.4005 26.3055 38.058 26.1518C38.4345 26.0638 38.8945 24.3927 39.17 23.9895C39.1778 23.978 39.1861 23.9669 39.1941 23.9557Z" fill="#ADBFD6"/>
<path d="M57.4256 23.9526C57.6522 24.1032 58.2028 25.7755 58.374 26.1589C59.225 26.2124 60.0852 26.2133 60.9327 26.2932C60.2688 26.8153 59.6151 27.3498 58.9715 27.8966C59.1477 28.6062 59.4698 29.426 59.5485 30.1401C59.5602 30.2466 59.5639 30.2974 59.4972 30.3855C59.1972 30.3832 57.7701 29.2364 57.4383 29.0091C56.6105 29.3262 55.9675 30.0962 55.1755 30.5035C55.2556 29.6304 55.5825 28.7521 55.8282 27.9117C55.2519 27.3413 54.5591 26.8586 53.9444 26.3262C54.7467 26.1866 55.5911 26.2562 56.4032 26.1564C56.8023 25.5115 56.9775 24.5046 57.4256 23.9526Z" fill="#ADBFD6"/>
<path d="M43.1211 59.4896L43.945 59.4815C45.4667 59.4681 47.0026 59.3741 48.1682 60.5379C49.229 61.5972 49.1189 62.7311 49.1236 64.1067C49.1262 64.8591 49.1411 65.6119 49.1374 66.3643C49.1325 67.3393 48.8669 68.2355 48.1536 68.933C47.7426 69.3349 47.1668 69.6783 46.6072 69.8183C45.832 70.0119 44.9345 69.9356 44.1367 69.9398C42.4062 69.9487 40.6808 69.9044 38.9512 69.8953C38.3244 69.8922 37.6972 69.9044 37.0704 69.9083C35.8527 69.916 34.9172 69.8606 33.9786 68.9881C33.1689 68.2355 32.8293 67.2213 32.8011 66.1387C32.7831 65.4498 32.7925 64.7583 32.792 64.0689C32.7912 62.7227 32.7291 61.5549 33.7363 60.516C34.1397 60.0999 34.6865 59.7616 35.2508 59.621C36.1366 59.4003 37.6715 59.5192 38.638 59.5207C40.1325 59.5249 41.6268 59.5146 43.1211 59.4896Z" fill="#EE5F59"/>
<path d="M35.7363 59.6103C36.3459 59.5354 37.0124 59.5939 37.629 59.5958L41.1973 59.5956L41.1832 69.8399C40.2438 69.8134 39.3003 69.8344 38.3604 69.8374C37.0287 69.8426 35.5872 70.0495 34.43 69.2541C34.3825 69.2211 34.3357 69.1871 34.2898 69.1519C34.2439 69.1167 34.1989 69.0804 34.1548 69.043C34.1106 69.0056 34.0674 68.9671 34.0252 68.9277C33.9829 68.8881 33.9417 68.8476 33.9014 68.8061C33.8611 68.7646 33.8219 68.7221 33.7837 68.6786C33.7455 68.6352 33.7083 68.5909 33.6723 68.5457C33.6363 68.5004 33.6014 68.4543 33.5676 68.4073C33.5338 68.3604 33.5012 68.3126 33.4697 68.2641C33.4383 68.2155 33.408 68.1663 33.379 68.1162C33.3499 68.0662 33.3221 68.0155 33.2955 67.9641C33.269 67.9127 33.2437 67.8608 33.2197 67.8082C33.1956 67.7556 33.1729 67.7024 33.1514 67.6487C33.13 67.5949 33.1099 67.5407 33.0911 67.486C33.0723 67.4313 33.0549 67.3762 33.0388 67.3206C33.0227 67.2651 33.0079 67.2091 32.9946 67.1529C32.9812 67.0966 32.9692 67.04 32.9586 66.9832C32.8351 66.2994 32.82 62.8014 32.947 62.1625C32.9686 62.0566 32.9957 61.9521 33.0285 61.8491C33.0612 61.746 33.0992 61.645 33.1427 61.546C33.1861 61.447 33.2347 61.3506 33.2883 61.2567C33.342 61.1629 33.4005 61.0721 33.4638 60.9845C34.0179 60.2105 34.8062 59.7608 35.7363 59.6103Z" fill="white"/>
</svg>
