<svg width="64" height="64" viewBox="0 0 64 64" fill="none" xmlns="http://www.w3.org/2000/svg">
<path d="M17.7116 59.04C18.4226 58.9629 19.2265 59.0291 19.9459 59.0294L24.7032 59.0304L40.2834 59.0293L41.4727 59.0303C42.2564 59.032 42.8986 59.0301 43.4869 59.6288C44.1704 60.3244 44.0732 61.2015 44.0632 62.0993C43.5274 62.1129 42.9892 62.1024 42.4532 62.1021L16.0608 62.1059C16.0571 61.3271 15.9517 60.4909 16.4219 59.8173C16.7325 59.3723 17.189 59.1373 17.7116 59.04Z" fill="#0C1114"/>
<path d="M27.7984 50.0259C29.2885 49.9906 30.7881 50.0268 32.2791 50.0324L32.2836 54.2765C32.9788 54.2827 33.674 54.2837 34.3691 54.2794C35.9184 54.2784 36.9389 54.3754 38.2763 55.2529C38.3142 55.2782 38.3519 55.3039 38.3893 55.3301C38.4266 55.3563 38.4636 55.3829 38.5003 55.41C38.537 55.437 38.5734 55.4645 38.6094 55.4925C38.6455 55.5205 38.6812 55.5488 38.7166 55.5776C38.7519 55.6064 38.787 55.6356 38.8216 55.6653C38.8563 55.6949 38.8905 55.725 38.9245 55.7555C38.9584 55.786 38.992 55.8168 39.0252 55.8481C39.0584 55.8794 39.0912 55.911 39.1236 55.9431C39.156 55.9752 39.1881 56.0077 39.2198 56.0405C39.2514 56.0733 39.2827 56.1065 39.3135 56.1401C39.3444 56.1737 39.3748 56.2077 39.4048 56.242C39.4349 56.2763 39.4645 56.311 39.4937 56.3461C39.5229 56.3811 39.5517 56.4165 39.58 56.4522C39.6084 56.4879 39.6363 56.524 39.6638 56.5604C39.6913 56.5968 39.7183 56.6335 39.7449 56.6706C39.7715 56.7076 39.7976 56.7449 39.8233 56.7826C39.849 56.8203 39.8743 56.8583 39.8991 56.8966C39.9239 56.9349 39.9482 56.9735 39.972 57.0124C39.9959 57.0512 40.0193 57.0903 40.0422 57.1298C40.0651 57.1692 40.0875 57.2089 40.1095 57.2489C40.1315 57.2889 40.1529 57.3291 40.1739 57.3696C40.1949 57.4101 40.2154 57.4508 40.2354 57.4918C40.2554 57.5328 40.2749 57.574 40.2939 57.6155C40.313 57.657 40.3315 57.6986 40.3495 57.7405C40.3675 57.7824 40.3851 57.8245 40.4021 57.8669C40.4191 57.9092 40.4355 57.9517 40.4515 57.9944C40.4675 58.0371 40.483 58.08 40.4979 58.1231C40.5129 58.1662 40.5273 58.2095 40.5412 58.2529C40.5551 58.2963 40.5685 58.34 40.5813 58.3837C40.5942 58.4275 40.6065 58.4714 40.6183 58.5154C40.6301 58.5595 40.6414 58.6037 40.6521 58.648C40.6629 58.6923 40.6731 58.7368 40.6828 58.7814L32.1407 58.7877L19.2551 58.789C19.5362 57.7843 20.0213 56.9015 20.7586 56.1577C22.8611 54.0367 25.0776 54.2967 27.7785 54.2848C27.811 52.8644 27.7927 51.4463 27.7984 50.0259Z" fill="#0C1114"/>
<path d="M29.7985 1.63978C33.9711 1.6265 37.4143 2.59151 40.9992 4.70647C41.4648 3.83684 41.9404 2.9665 42.4389 2.1153C42.5125 1.98973 42.651 1.74428 42.8035 1.71796C43.1099 1.66502 44.1705 2.40596 44.4718 2.60658C48.6568 5.39363 52.1129 9.37971 54.0267 14.0551C54.712 15.7293 55.1803 17.4428 55.5328 19.2149C55.9602 21.3633 56.0371 23.5437 55.8596 25.7245C55.8386 26.0034 55.8132 26.2819 55.7833 26.56C55.7533 26.838 55.7189 27.1156 55.6801 27.3926C55.6412 27.6695 55.5979 27.9458 55.5502 28.2214C55.5025 28.497 55.4503 28.7717 55.3937 29.0456C55.3371 29.3195 55.2761 29.5924 55.2108 29.8643C55.1454 30.1363 55.0757 30.4071 55.0016 30.6768C54.9276 30.9465 54.8492 31.2149 54.7665 31.4822C54.6838 31.7493 54.5968 32.0151 54.5055 32.2795C54.4143 32.5438 54.3188 32.8067 54.2191 33.068C54.1194 33.3293 54.0155 33.5889 53.9074 33.8468C53.7993 34.1048 53.6871 34.361 53.5708 34.6153C53.4545 34.8697 53.3342 35.1221 53.2097 35.3726C53.0853 35.6231 52.9569 35.8715 52.8245 36.1178C52.692 36.3642 52.5557 36.6083 52.4155 36.8503C52.2752 37.0923 52.131 37.3319 51.9831 37.5693C51.8351 37.8066 51.6833 38.0414 51.5278 38.2739C48.4483 42.8676 43.6483 46.4848 38.4183 48.27C37.2343 48.6741 36.0121 48.9523 34.7866 49.1946C30.7503 49.981 26.4905 49.8442 22.5761 48.5271C21.1752 48.0558 19.8567 47.44 18.5342 46.7845C18.4686 46.853 18.4023 46.9353 18.3139 46.974C18.226 47.0125 18.1283 47.0163 18.0409 46.9736C17.9331 46.9211 17.8246 46.8086 17.7996 46.6882C17.7783 46.5855 17.8368 46.4726 17.8789 46.3823C18.101 45.9063 18.4038 45.4456 18.6606 44.9851C18.9685 44.4332 19.2466 43.8621 19.5726 43.3208C17.9666 42.4779 16.4473 41.3356 15.1376 40.0852C14.8542 39.8181 14.5779 39.5439 14.3086 39.2628C14.0392 38.9816 13.7772 38.6938 13.5225 38.3993C13.2677 38.1047 13.0207 37.8039 12.7813 37.4968C12.5419 37.1898 12.3104 36.8768 12.087 36.5579C9.69008 33.1015 8.18914 28.6961 8.09527 24.4845C7.96202 18.5067 10.0376 12.8694 14.1931 8.5374C14.3189 8.40528 14.4463 8.27471 14.5753 8.14571C14.7042 8.01671 14.8348 7.88932 14.9669 7.76353C15.099 7.63774 15.2327 7.51359 15.3678 7.39109C15.503 7.26859 15.6396 7.14778 15.7778 7.02865C15.9159 6.90953 16.0555 6.79211 16.1965 6.6764C16.3376 6.56069 16.48 6.44676 16.6238 6.33459C16.7677 6.22239 16.9129 6.11199 17.0595 6.00338C17.206 5.89476 17.3539 5.78797 17.5031 5.683C17.6522 5.57803 17.8027 5.47491 17.9545 5.37365C18.1062 5.27237 18.2591 5.17299 18.4133 5.07549C18.5675 4.97799 18.7228 4.8824 18.8793 4.78873C19.0359 4.69505 19.1935 4.60331 19.3523 4.51352C19.5111 4.42373 19.671 4.3359 19.832 4.25004C19.9929 4.16418 20.1549 4.08032 20.3179 3.99845C20.4809 3.91658 20.6449 3.83673 20.8099 3.7589C20.9749 3.68107 21.1407 3.60528 21.3076 3.53153C21.4745 3.45779 21.6422 3.38611 21.8108 3.31649C21.9794 3.24687 22.1489 3.17934 22.3191 3.1139C22.4894 3.04845 22.6604 2.98511 22.8323 2.92388C23.0041 2.86264 23.1767 2.80354 23.35 2.74655C23.5232 2.68957 23.6972 2.63473 23.8718 2.58203C24.0465 2.52933 24.2218 2.47878 24.3976 2.4304C24.5735 2.38201 24.75 2.3358 24.927 2.29176C25.104 2.24772 25.2815 2.20586 25.4596 2.1662C25.6377 2.12653 25.8162 2.08905 25.9951 2.05378C26.1741 2.0185 26.3535 1.98544 26.5333 1.95458C26.7131 1.92373 26.8932 1.89509 27.0737 1.86866C27.2542 1.84224 27.435 1.81804 27.6161 1.79607C27.7972 1.7741 27.9785 1.75437 28.1601 1.73686C28.3417 1.71935 28.5234 1.70409 28.7054 1.69106C28.8874 1.67803 29.0694 1.66724 29.2516 1.65869C29.4339 1.65014 29.6161 1.64384 29.7985 1.63978Z" fill="#0C1114"/>
<path d="M34.0321 39.8853C34.5222 40.1376 34.9975 40.4244 35.4755 40.6992C34.9973 40.9102 34.4726 40.9648 34.0042 41.2113C33.5362 41.4578 33.1351 41.8191 32.6856 42.0964C31.5089 42.8221 29.4284 43.6575 28.0596 43.1148C27.9423 43.0683 27.8317 43.015 27.7271 42.9439C30.1466 42.1957 31.9085 41.2532 34.0321 39.8853Z" fill="#5576B9"/>
<path d="M46.8612 13.6857C47.4544 13.7755 48.0305 13.9259 48.4095 14.4348C48.5379 14.6072 48.7135 14.9497 48.6737 15.1745C48.6556 15.2772 48.5577 15.3322 48.4745 15.3788C48.381 15.4312 48.2836 15.4775 48.1912 15.5316C48.3292 15.6984 48.7991 16.2836 48.9481 16.3637C49.324 16.2816 49.1371 15.8162 49.8255 16.2593C49.9454 16.3364 50.2621 16.6227 50.3902 16.6067C50.4045 16.6049 50.418 16.5984 50.4318 16.5943C50.9891 17.9544 51.2846 19.4833 51.4808 20.9347C49.9746 20.4262 48.4894 19.8622 47.0253 19.2427C47.286 17.347 47.1636 15.5601 46.8612 13.6857Z" fill="#5576B9"/>
<path d="M29.7375 28.6537C30.1654 28.9322 30.6464 28.9584 31.0554 29.2013C31.3833 29.396 31.5286 29.7629 31.7819 30.0319C32.0168 30.2813 32.5213 30.4595 32.62 30.8069C32.623 30.8175 32.6254 30.8282 32.6275 30.839C32.6471 30.9431 32.6118 31.0304 32.5513 31.1124C32.1968 31.5922 31.6229 31.6785 31.7169 32.4037C31.8471 33.4077 32.0295 34.1932 31.373 35.0737C30.919 35.6827 30.2159 35.9932 29.7229 36.5551C29.5602 36.7406 29.4713 36.9284 29.3438 37.1346C28.1105 36.4907 26.8973 35.7937 25.6952 35.0934C26.3949 33.8901 27.1976 32.731 27.9426 31.5547C28.5504 30.5948 29.1083 29.5996 29.7375 28.6537Z" fill="#FEFEFE"/>
<path d="M32.7111 2.01746C38.1752 2.62507 43.3785 5.73514 46.7895 10.0085C48.2935 11.8928 49.6924 14.2943 50.4317 16.5943C50.4179 16.5985 50.4045 16.6049 50.3902 16.6067C50.2621 16.6227 49.9453 16.3365 49.8254 16.2593C49.1371 15.8163 49.324 16.2817 48.948 16.3637C48.799 16.2837 48.3292 15.6985 48.1912 15.5317C48.2835 15.4775 48.3809 15.4313 48.4744 15.3788C48.5577 15.3322 48.6555 15.2772 48.6737 15.1746C48.7134 14.9497 48.5378 14.6072 48.4095 14.4348C48.0304 13.9259 47.4543 13.7755 46.8612 13.6857C46.7265 13.0405 46.0317 10.8182 45.6813 10.3699L45.6455 10.3695C45.6828 10.6341 45.973 11.1593 46.0839 11.4442C46.3646 12.165 46.6263 12.9215 46.7756 13.6816C47.1167 15.7006 47.1621 17.1739 46.9593 19.2122C45.0587 18.4268 43.1933 17.5652 41.3631 16.6274C41.0728 16.5543 40.7881 16.3404 40.5143 16.2118C40.2367 16.0888 39.9566 15.9702 39.6902 15.824L39.6787 15.8188C39.4522 15.7181 39.2447 15.5875 39.0337 15.4586C38.8872 15.4229 38.7147 15.2962 38.5854 15.2152C38.305 15.0468 38.0009 14.9075 37.715 14.7468C38.3583 13.3075 39.0989 11.9112 39.7029 10.4532C40.3418 9.16816 40.8305 7.64997 41.3134 6.29272L41.2763 6.27141C41.0403 6.15887 40.7575 6.08567 40.4978 6.05454C40.3005 6.0309 40.069 6.05521 39.889 5.96729L39.8801 5.91677C40.0703 5.75044 40.3653 5.70057 40.5808 5.54736L40.6158 5.52208C40.4089 5.35662 40.162 5.23355 39.9232 5.12223C38.7243 4.5636 37.4523 4.1605 36.2583 3.59367C36.0891 3.51335 35.808 3.33834 35.6257 3.32614C35.2243 3.29928 35.0577 4.06588 34.8272 4.2993C34.4211 4.71049 33.9553 4.33239 33.5156 4.26714C33.2663 4.23014 32.9611 4.28088 32.707 4.28911L32.6001 3.73702C32.8678 3.81575 33.2271 3.95434 33.5008 3.86906C33.5605 3.81396 33.5844 3.79357 33.5927 3.70632C33.6033 3.59301 33.5484 3.45551 33.5144 3.34856C33.2811 2.61556 33.0487 2.6124 32.6785 2.05145L32.7111 2.01746Z" fill="#FEFEFE"/>
<path d="M34.1476 2.93909C34.305 2.93991 34.5428 2.94736 34.6781 3.03425C34.742 3.07523 34.7923 3.12357 34.8045 3.20205C34.8411 3.43742 34.5873 3.66182 34.4462 3.81696C34.3852 3.87147 34.3358 3.90196 34.2606 3.93419C34.1837 3.92592 34.146 3.91684 34.0922 3.85738C33.9616 3.71298 33.9007 3.4077 33.937 3.22112C33.9648 3.07808 34.0372 3.02199 34.1476 2.93909Z" fill="#F16F6E"/>
<path d="M39.4091 11.2695C39.7876 11.2973 40.3317 11.5137 40.7302 11.5895C41.0101 11.6427 41.3034 11.6189 41.5777 11.6818C41.6777 11.7047 41.7152 11.7347 41.7672 11.8212C41.7734 11.9266 41.7454 11.9937 41.7049 12.09C41.6587 12.1165 41.6122 12.1388 41.5614 12.1548C41.0847 12.3043 40.3365 11.9993 39.9201 11.781C39.6812 11.6557 39.4919 11.5387 39.4091 11.2695Z" fill="#5576B9"/>
<path d="M38.5854 15.2152C38.5847 15.1988 38.5842 15.1824 38.5833 15.1661C38.5801 15.1085 38.5661 15.0602 38.551 15.005C38.5272 14.9175 38.5202 14.8737 38.5674 14.7917C38.7378 14.4958 39.2727 14.2565 39.5965 14.1755C39.6739 14.1562 39.7284 14.1556 39.8003 14.1941C39.9003 14.3088 39.9178 14.416 39.9038 14.5668C39.8757 14.8685 39.7296 15.169 39.486 15.3539C39.343 15.4625 39.2062 15.4651 39.0337 15.4585C38.8872 15.4228 38.7147 15.2961 38.5854 15.2152Z" fill="#5576B9"/>
<path d="M39.6903 15.824L39.7224 15.7919C39.8719 15.6401 40.0057 15.4758 40.0864 15.276C40.2797 14.7973 40.2657 13.895 40.9962 13.8882C41.072 13.8875 41.1399 13.8992 41.1986 13.9515C41.2401 13.9885 41.2326 14.0216 41.2406 14.0735C41.1349 14.3902 40.9342 14.6295 40.8601 14.9676C40.9482 15.2136 41.197 15.5951 41.1019 15.8527C41.0281 16.0526 40.7549 16.1403 40.5689 16.1965C40.5508 16.202 40.5325 16.2066 40.5144 16.2117C40.2368 16.0887 39.9567 15.9701 39.6903 15.824Z" fill="#5576B9"/>
<path d="M41.3134 6.29272C41.9476 6.51041 42.6138 6.98047 43.0678 7.47172C43.3122 7.73622 43.5303 8.03185 43.7995 8.2721C44.0821 8.52422 44.4444 8.70935 44.6935 8.99323C44.0503 9.60785 43.1296 9.64197 42.3936 10.0678C42.0484 10.2674 41.8391 10.6415 41.5283 10.8877C40.931 10.7704 40.261 10.699 39.7029 10.4532C40.3418 9.16816 40.8304 7.64997 41.3134 6.29272Z" fill="#F16F6E"/>
<path d="M44.0565 14.6674C44.3115 14.5279 44.536 14.3303 44.771 14.1598C45.3974 13.7051 46.0288 13.6758 46.7757 13.6816C47.1168 15.7006 47.1622 17.1739 46.9594 19.2122C45.0588 18.4269 43.1934 17.5653 41.3632 16.6274C41.7513 16.4717 42.1286 16.3182 42.541 16.2371C43.3799 16.4704 43.1166 17.0421 43.7064 17.3401C44.068 17.5227 44.5977 17.4552 44.9726 17.3338C45.3447 17.2134 45.6533 17.005 45.8315 16.6496C45.8171 16.4304 45.8056 16.211 45.797 15.9915C45.9768 15.831 46.1942 15.7158 46.338 15.5165C46.418 15.4058 46.5245 15.1962 46.4754 15.0542C46.4472 14.9724 46.4235 14.9637 46.3523 14.9247C46.2505 14.9201 46.17 14.9409 46.0871 15.0013C45.8902 15.1449 45.7564 15.4059 45.5812 15.5791C45.3159 15.8416 44.9579 16.006 44.6447 16.2031C44.6016 16.4647 44.5817 16.8344 44.3373 16.9916C44.2238 17.0646 43.9884 17.0617 43.8653 17.0169C43.4143 16.8528 43.5675 16.1191 43.3404 15.7769C43.1928 15.5546 42.9162 15.4114 42.8151 15.1566C42.7568 15.0096 42.7552 14.8351 42.8201 14.6901C42.8867 14.5414 43.0184 14.4314 43.1729 14.3829C43.5389 14.2682 43.7618 14.5067 44.0565 14.6674Z" fill="#5576B9"/>
<path d="M22.5095 3.25173C25.1038 2.15606 28.4453 1.73188 31.248 1.88628C31.7313 1.9129 32.2364 1.92142 32.7111 2.01741L32.6785 2.0514C33.0487 2.61235 33.2811 2.61551 33.5144 3.34851C33.5484 3.45546 33.6033 3.59296 33.5926 3.70627C33.5844 3.79352 33.5605 3.81391 33.5008 3.86901C33.2271 3.95429 32.8678 3.8157 32.6001 3.73697L32.707 4.28906C32.9611 4.28083 33.2663 4.23009 33.5156 4.26709C33.9553 4.33234 34.4211 4.71044 34.8272 4.29925C35.0577 4.06583 35.2243 3.29923 35.6257 3.32609C35.808 3.33829 36.0891 3.5133 36.2583 3.59362C37.4523 4.16045 38.7243 4.56355 39.9231 5.12218C40.162 5.2335 40.4089 5.35658 40.6158 5.52203L40.5808 5.54731C40.3653 5.70052 40.0703 5.75039 39.8801 5.91672L39.889 5.96724C40.069 6.05516 40.3005 6.03085 40.4978 6.05449C40.7575 6.08562 41.0403 6.15883 41.2763 6.27136C41.1083 6.50974 40.833 7.47305 40.7107 7.81055C40.4897 8.40959 40.252 9.0019 39.9976 9.58749C39.8801 9.86493 39.7728 10.1582 39.6366 10.4264C39.022 11.8731 38.3016 13.2674 37.6517 14.6969C36.3497 13.9674 35.1007 13.1271 33.8921 12.2519C33.6235 12.0575 32.5673 11.1893 32.3761 11.1293L32.3836 11.1902C32.1675 11.3853 32.1612 11.7524 31.9811 11.9721C31.9306 12.0338 31.8698 12.0688 31.7874 12.0627C31.5871 12.0477 31.1895 11.6822 31.0408 11.547C31.1245 11.2941 31.2321 11.0266 31.1384 10.7606C31.0916 10.6276 30.9968 10.5194 30.8676 10.4611C30.6896 10.3806 30.4896 10.4078 30.3123 10.4762C30.1668 10.5323 29.8973 10.7037 29.8368 10.846C29.6736 10.6276 28.8861 10.1076 28.6111 9.88136C28.2149 9.55555 27.8391 9.20174 27.4622 8.85393C27.0032 8.43063 26.5554 7.99595 26.1186 7.54986C25.6818 7.10378 25.2566 6.64685 24.8431 6.17908C24.4295 5.71132 24.0282 5.23334 23.639 4.74513C23.2499 4.25692 22.8734 3.75912 22.5095 3.25173Z" fill="#F16F6E"/>
<path d="M29.8213 5.19511C30.4508 5.14574 31.2873 5.19043 31.8712 5.45408C32.2101 5.60717 32.5374 5.83065 32.9146 5.87423C33.1975 5.90692 33.5542 5.81418 33.8425 5.78887C34.0802 5.76799 34.4012 5.73372 34.5936 5.89665C34.6247 5.97889 34.6339 6.02044 34.6036 6.1058C34.5512 6.25316 34.3839 6.36472 34.2527 6.43372C34.0116 6.56053 33.5786 6.70022 33.3057 6.65897C33.2014 6.64322 33.1073 6.56985 33.0055 6.53947C32.587 6.41441 32.0413 6.50885 31.6673 6.71291C31.3487 6.93278 31.0477 7.17597 30.7072 7.36347C30.3696 7.54928 30.0038 7.67403 29.6573 7.84028C29.4614 7.93428 29.2777 8.06453 29.0775 8.14791C28.9943 8.18253 28.9423 8.20428 28.8588 8.17328C28.7742 8.05291 28.7291 7.9371 28.7177 7.78903C28.7087 7.67316 28.7233 7.58628 28.7996 7.49422C28.8995 7.43603 29.0121 7.45766 29.1237 7.45716C29.373 7.4561 29.6269 7.28447 29.7947 7.10972C29.9802 6.91635 30.0962 6.66228 30.0787 6.3911C30.0523 5.98071 29.7941 5.86215 29.5324 5.60774C29.4679 5.54502 29.4543 5.51067 29.4488 5.42263C29.522 5.29147 29.6858 5.23981 29.8213 5.19511Z" fill="#FEFEFE"/>
<path d="M36.572 5.47192C37.4033 5.4688 38.2635 5.42489 39.091 5.49408C38.7855 5.61245 38.4539 5.63727 38.1533 5.75757C38.0192 5.81123 37.8835 5.89391 37.8285 6.0348C37.6579 6.47248 38.3127 6.96555 38.4654 7.33867C38.5121 7.45273 38.5137 7.57011 38.4643 7.68323C38.3308 7.98867 37.7918 8.04017 37.5083 8.13549C36.9981 8.30692 36.5514 8.9738 36.3308 9.43386C36.2036 9.69911 35.9947 10.145 36.1116 10.4365C36.1507 10.5339 36.2204 10.6036 36.3198 10.6392C36.6601 10.7612 37.2898 10.2828 37.6072 10.1414C38.408 9.78455 38.8961 10.1372 39.6367 10.4265C39.022 11.8731 38.3017 13.2675 37.6517 14.697C36.3497 13.9675 35.1007 13.1272 33.8921 12.252C33.6235 12.0575 32.5673 11.1894 32.3761 11.1294C32.5974 10.8004 32.9378 10.5819 33.1502 10.2454C33.1748 10.0272 33.142 9.80217 33.1827 9.58661C33.2512 9.22361 33.71 9.15473 33.8977 8.85536C33.9638 8.7498 34.0169 8.58817 33.9796 8.4648C33.915 8.2513 33.3266 8.52499 33.0725 8.40905C33.0368 8.36461 33.015 8.34742 33.0022 8.29017C32.9728 8.15873 33.0229 7.97874 33.1003 7.87036C33.4848 7.33149 34.3795 7.84936 34.885 7.7213C35.084 7.67086 36.0492 6.70161 36.1663 6.49111C36.3382 6.18236 36.3707 5.81125 36.572 5.47192Z" fill="#FEFEFE"/>
<path d="M47.0148 19.3087C48.456 19.9589 49.9716 20.5273 51.4806 20.998C51.8836 25.0072 51.4111 28.855 49.7583 32.5497C49.5201 33.082 49.2555 33.8407 48.8943 34.2937C48.6675 34.7673 48.3573 35.1957 48.0723 35.6351C47.9662 35.7981 47.8579 35.9597 47.7475 36.1199C47.637 36.2801 47.5244 36.4387 47.4097 36.5959C47.295 36.753 47.1782 36.9086 47.0594 37.0627C46.9405 37.2167 46.8196 37.3691 46.6967 37.5199C46.5737 37.6707 46.4488 37.8199 46.322 37.9673C46.195 38.1148 46.0662 38.2605 45.9353 38.4045C45.8045 38.5486 45.6718 38.6908 45.5372 38.8313C45.4026 38.9717 45.2661 39.1104 45.1278 39.2472C44.9895 39.384 44.8494 39.519 44.7075 39.6521C44.5655 39.7852 44.4219 39.9163 44.2765 40.0456C44.131 40.1748 43.9839 40.3021 43.8351 40.4274C43.6862 40.5527 43.5358 40.676 43.3836 40.7973C43.2315 40.9186 43.0778 41.0378 42.9225 41.155C42.7672 41.2722 42.6103 41.3873 42.452 41.5003C42.2935 41.6133 42.1337 41.7241 41.9723 41.8328C41.811 41.9415 41.6482 42.0481 41.484 42.1525C40.9265 42.5102 40.3609 42.8731 39.7585 43.1519C39.3925 42.9644 39.0353 42.7614 38.687 42.5429C38.3661 42.4467 37.6948 41.9546 37.3741 41.7496C36.7847 41.3689 36.1836 40.9897 35.5691 40.6508C35.0714 40.3908 34.5975 40.0878 34.101 39.8249C34.6622 39.4617 35.2014 39.0682 35.7186 38.6446C36.1126 38.3288 36.4993 38.0044 36.8788 37.6713C37.2582 37.3383 37.63 36.9968 37.9941 36.6471C38.3583 36.2973 38.7144 35.9396 39.0625 35.5738C39.4105 35.2081 39.7502 34.8348 40.0816 34.4538C43.5137 30.4476 46.4722 24.5931 47.0148 19.3087Z" fill="#5576B9"/>
<path d="M35.5691 40.6508C36.0306 40.3035 36.553 39.9644 36.9241 39.5178C37.381 38.968 37.6728 38.3099 38.244 37.8503C39.1668 37.1078 40.5925 36.7315 41.6328 36.0705C42.1333 35.7526 43.0242 35.0526 43.138 34.4284C43.2198 33.9799 42.3495 33.9905 42.1272 33.6689C42.0776 33.5971 42.0782 33.5905 42.094 33.5097C42.1393 33.4631 42.169 33.436 42.2328 33.4164C42.5907 33.3062 43.6516 33.3893 44.1692 33.3108C44.7739 33.219 45.4752 33.0378 46.0042 32.7215C46.1968 32.6062 46.4145 32.4465 46.4613 32.2118C46.615 31.4422 45.2507 31.0305 45.019 30.6364C44.9576 30.5318 44.9328 30.3875 44.9349 30.2674C44.9389 30.038 45.0729 29.8207 45.1032 29.5945C45.159 29.1783 45.0052 28.7706 45.1455 28.3476C45.1877 28.2202 45.2398 28.1551 45.3587 28.0952C45.3979 28.0946 45.4311 28.0839 45.4638 28.11C45.691 28.2915 45.6455 28.9164 45.6671 29.1861C45.7346 30.0309 46.1933 30.2109 46.5575 30.8192C46.7213 31.0928 46.7885 31.5819 47.0453 31.7744C47.5417 32.1464 47.9242 31.557 48.362 31.5243C48.4422 31.5183 48.4923 31.5362 48.5535 31.5879C49.0232 31.9849 48.8066 33.6372 48.8897 34.2618C48.8911 34.2725 48.8928 34.2831 48.8943 34.2937C48.6675 34.7673 48.3573 35.1957 48.0723 35.6351C47.9662 35.7981 47.8579 35.9597 47.7475 36.1199C47.637 36.2801 47.5244 36.4387 47.4097 36.5959C47.295 36.753 47.1782 36.9086 47.0594 37.0627C46.9405 37.2167 46.8196 37.3691 46.6967 37.5199C46.5738 37.6707 46.4488 37.8199 46.322 37.9674C46.1951 38.1148 46.0662 38.2605 45.9353 38.4045C45.8046 38.5486 45.6718 38.6908 45.5372 38.8313C45.4026 38.9717 45.2661 39.1104 45.1278 39.2472C44.9895 39.3841 44.8494 39.519 44.7075 39.6521C44.5655 39.7852 44.4219 39.9164 44.2765 40.0456C44.131 40.1749 43.9839 40.3021 43.8351 40.4274C43.6863 40.5527 43.5358 40.676 43.3837 40.7973C43.2315 40.9186 43.0778 41.0378 42.9225 41.155C42.7672 41.2722 42.6103 41.3873 42.452 41.5003C42.2936 41.6133 42.1337 41.7241 41.9723 41.8329C41.811 41.9416 41.6482 42.0481 41.484 42.1525C40.9265 42.5102 40.3609 42.8731 39.7585 43.1519C39.3925 42.9644 39.0353 42.7614 38.687 42.5429C38.3662 42.4467 37.6948 41.9546 37.3742 41.7496C36.7847 41.3689 36.1836 40.9897 35.5691 40.6508Z" fill="#FEFEFE"/>
<path d="M37.3741 41.7496C37.7215 41.6162 38.5975 41.2231 38.951 41.3904C39.0258 41.4257 39.0758 41.4714 39.0973 41.5535C39.1851 41.8881 38.8516 42.2735 38.687 42.5429C38.3661 42.4467 37.6948 41.9546 37.3741 41.7496Z" fill="#5576B9"/>
<path d="M43.0348 2.51685C43.8526 2.93523 44.6394 3.52753 45.3731 4.07969C45.4859 4.16354 45.5979 4.24836 45.7093 4.33413C45.8206 4.41989 45.9312 4.50661 46.041 4.59427C46.1509 4.68193 46.26 4.77053 46.3683 4.86006C46.4767 4.94958 46.5842 5.04003 46.691 5.1314C46.7978 5.22277 46.9038 5.31504 47.009 5.40822C47.1142 5.5014 47.2186 5.59547 47.3222 5.69044C47.4258 5.78541 47.5285 5.88125 47.6305 5.97798C47.7325 6.0747 47.8336 6.17228 47.9339 6.27072C48.0342 6.36918 48.1336 6.46849 48.2323 6.56866C48.3308 6.66882 48.4286 6.76982 48.5254 6.87166C48.6223 6.97345 48.7183 7.0761 48.8134 7.1796C48.9085 7.28305 49.0027 7.38732 49.096 7.49241C49.1893 7.59749 49.2818 7.70337 49.3733 7.81003C49.4648 7.91666 49.5554 8.02407 49.6451 8.13228C49.7348 8.24053 49.8235 8.34951 49.9113 8.45922C49.9991 8.56893 50.086 8.67941 50.1719 8.79066C50.2579 8.90187 50.3428 9.0138 50.4268 9.12647C50.5108 9.23914 50.5939 9.35251 50.6759 9.4666C50.758 9.58068 50.8391 9.69545 50.9192 9.81091C50.9993 9.92641 51.0784 10.0426 51.1566 10.1594C51.2347 10.2762 51.3118 10.3937 51.3879 10.5118C51.464 10.63 51.5391 10.7488 51.6132 10.8682C51.6873 10.9876 51.7603 11.1077 51.8323 11.2284C51.9044 11.3491 51.9754 11.4703 52.0453 11.5922C52.1153 11.7141 52.1842 11.8366 52.252 11.9597C52.3199 12.0828 52.3867 12.2064 52.4524 12.3307C52.5181 12.4549 52.5828 12.5796 52.6464 12.705C52.71 12.8303 52.7725 12.9561 52.834 13.0825C52.8955 13.2089 52.9558 13.3358 53.0151 13.4632C53.0744 13.5907 53.1326 13.7186 53.1897 13.847C53.2468 13.9754 53.3028 14.1043 53.3577 14.2337C53.4126 14.3631 53.4663 14.4929 53.519 14.6232C53.5939 14.8121 53.6665 15.0019 53.7368 15.1926C53.807 15.3833 53.875 15.5748 53.9406 15.7672C54.0062 15.9595 54.0694 16.1526 54.1303 16.3465C54.1912 16.5403 54.2497 16.7349 54.3059 16.9303C54.362 17.1256 54.4158 17.3215 54.4671 17.5182C54.5185 17.7148 54.5674 17.912 54.614 18.1098C54.6605 18.3076 54.7047 18.506 54.7464 18.7048C54.7881 18.9038 54.8274 19.1031 54.8642 19.303C54.901 19.5028 54.9354 19.7031 54.9674 19.9038C54.9993 20.1045 55.0289 20.3056 55.0559 20.507C55.083 20.7084 55.1076 20.9101 55.1297 21.1121C55.1518 21.3141 55.1715 21.5163 55.1887 21.7188C55.2059 21.9213 55.2206 22.124 55.2329 22.3268C55.2451 22.5297 55.2549 22.7326 55.2622 22.9357C55.2695 23.1388 55.2743 23.342 55.2767 23.5452C55.279 23.7484 55.2789 23.9516 55.2763 24.1548C55.2736 24.358 55.2685 24.5611 55.261 24.7642C55.2534 24.9673 55.2434 25.1703 55.2309 25.3731C55.2183 25.5759 55.2033 25.7786 55.1859 25.981C55.1684 26.1835 55.1485 26.3857 55.1261 26.5877C55.1037 26.7897 55.0788 26.9913 55.0515 27.1927C55.0242 27.3941 54.9944 27.5951 54.9622 27.7958C54.9299 27.9964 54.8953 28.1966 54.8582 28.3965C54.8211 28.5963 54.7815 28.7956 54.7396 28.9944C54.6976 29.1932 54.6532 29.3915 54.6064 29.5893C54.5595 29.787 54.5103 29.9842 54.4588 30.1808C54.4071 30.3773 54.3531 30.5732 54.2967 30.7684C54.2403 30.9637 54.1815 31.1582 54.1204 31.352C54.0592 31.5458 53.9957 31.7388 53.9299 31.9311C53.864 32.1233 53.7958 32.3148 53.7253 32.5053C53.6548 32.6959 53.5819 32.8856 53.5068 33.0744C53.4316 33.2632 53.3542 33.4511 53.2744 33.638C53.1946 33.8264 53.1124 34.0137 53.0279 34.2C52.9435 34.3863 52.8568 34.5716 52.7678 34.7557C52.6788 34.9399 52.5876 35.123 52.4941 35.305C52.4007 35.4869 52.305 35.6677 52.2071 35.8473C52.1092 36.027 52.0091 36.2054 51.9069 36.3825C51.8046 36.5597 51.7002 36.7356 51.5937 36.9102C51.4872 37.0848 51.3785 37.2581 51.2677 37.4301C51.1569 37.6021 51.044 37.7726 50.9291 37.9418C50.8141 38.111 50.6971 38.2788 50.578 38.4451C50.4589 38.6114 50.3378 38.7763 50.2148 38.9397C50.0917 39.1031 49.9666 39.2649 49.8395 39.4252C49.7125 39.5856 49.5835 39.7443 49.4526 39.9015C49.3216 40.0586 49.1888 40.2141 49.054 40.368C48.9193 40.5219 48.7827 40.6742 48.6442 40.8248C48.5057 40.9754 48.3655 41.1242 48.2234 41.2713C48.0813 41.4185 47.9374 41.5638 47.7917 41.7075C47.646 41.8511 47.4986 41.9929 47.3495 42.133C47.2004 42.273 47.0496 42.4111 46.8971 42.5475C46.7446 42.6838 46.5904 42.8182 46.4346 42.9508C46.2788 43.0834 46.1214 43.214 45.9624 43.3427C45.8034 43.4714 45.6429 43.5982 45.4808 43.723C45.3187 43.8477 45.1551 43.9705 44.99 44.0913C44.8249 44.2121 44.6584 44.3308 44.4904 44.4475C44.3224 44.5642 44.153 44.6789 43.9822 44.7914C43.8114 44.904 43.6392 45.0144 43.4657 45.1228C43.2922 45.2312 43.1174 45.3374 42.9413 45.4415C42.7652 45.5456 42.5878 45.6474 42.4093 45.7472C42.2307 45.8469 42.0509 45.9444 41.8699 46.0398C41.6889 46.1352 41.5068 46.2283 41.3235 46.3192C41.1403 46.41 40.9559 46.4987 40.7705 46.585C40.585 46.6714 40.3986 46.7556 40.2111 46.8373C40.0236 46.9192 39.8352 46.9987 39.6458 47.0759C37.9115 47.7681 36.1239 48.2358 34.2857 48.5484C29.5944 49.3462 25.0731 48.9263 20.684 47.0469C20.0604 46.7782 19.4756 46.4354 18.8567 46.1605C19.2961 45.3283 19.7597 44.5047 20.2085 43.6772C21.4162 44.2661 22.672 44.8087 23.9648 45.1821C27.1377 46.0987 30.5577 45.9926 33.7734 45.3858C33.9151 45.3598 34.0565 45.3324 34.1976 45.3037C34.3387 45.2749 34.4795 45.2447 34.62 45.2131C34.7605 45.1815 34.9007 45.1485 35.0406 45.1142C35.1804 45.0798 35.3199 45.044 35.4591 45.0069C35.5982 44.9698 35.7369 44.9313 35.8753 44.8914C36.0137 44.8515 36.1517 44.8103 36.2893 44.7677C36.4268 44.7251 36.564 44.6811 36.7006 44.6358C36.8373 44.5904 36.9736 44.5438 37.1094 44.4958C37.2451 44.4477 37.3804 44.3984 37.5152 44.3477C37.65 44.2969 37.7843 44.2449 37.918 44.1915C38.0518 44.1382 38.185 44.0835 38.3177 44.0275C38.4504 43.9715 38.5825 43.9142 38.714 43.8555C38.8455 43.7969 38.9765 43.737 39.1069 43.6758C39.2372 43.6146 39.3669 43.5521 39.4961 43.4883C39.6252 43.4245 39.7537 43.3594 39.8815 43.2931C40.0093 43.2268 40.1364 43.1592 40.2629 43.0903C40.3894 43.0214 40.5152 42.9513 40.6403 42.88C40.7654 42.8086 40.8898 42.736 41.0134 42.6622C41.1371 42.5884 41.26 42.5134 41.3822 42.4372C41.5044 42.3609 41.6258 42.2834 41.7464 42.2048C41.8671 42.1262 41.9869 42.0463 42.1059 41.9653C42.225 41.8842 42.3433 41.802 42.4607 41.7187C42.5781 41.6353 42.6947 41.5508 42.8104 41.4651C42.9262 41.3794 43.0411 41.2926 43.1551 41.2047C43.2692 41.1167 43.3823 41.0276 43.4946 40.9374C43.6069 40.8472 43.7182 40.7559 43.8287 40.6635C43.9392 40.5711 44.0487 40.4776 44.1573 40.383C44.2659 40.2884 44.3735 40.1928 44.4803 40.0961C44.587 39.9994 44.6927 39.9016 44.7975 39.8028C44.9023 39.704 45.006 39.6042 45.1088 39.5033C45.2116 39.4025 45.3134 39.3006 45.4142 39.1977C45.515 39.0948 45.6147 38.9909 45.7134 38.8861C46.4791 38.085 47.2184 37.2464 47.8429 36.3288C48.217 35.7789 48.6043 35.2168 48.9318 34.6385C48.9966 34.5242 49.0605 34.4093 49.1233 34.2938C49.1862 34.1784 49.248 34.0624 49.3088 33.9459C49.3695 33.8294 49.4292 33.7123 49.4879 33.5947C49.5466 33.4771 49.6042 33.3589 49.6608 33.2403C49.7173 33.1217 49.7729 33.0025 49.8273 32.8829C49.8817 32.7633 49.9351 32.6432 49.9874 32.5226C50.0397 32.402 50.0909 32.281 50.1411 32.1595C50.1912 32.038 50.2402 31.9161 50.2882 31.7937C50.3362 31.6713 50.3831 31.5486 50.4288 31.4253C50.4746 31.3021 50.5193 31.1785 50.5628 31.0545C50.6064 30.9305 50.6489 30.8061 50.6902 30.6813C50.7315 30.5566 50.7718 30.4315 50.8109 30.306C50.85 30.1805 50.888 30.0547 50.9249 29.9285C50.9617 29.8024 50.9974 29.6759 51.0321 29.5492C51.0667 29.4224 51.1002 29.2953 51.1325 29.1678C51.1648 29.0405 51.196 28.9128 51.2261 28.7848C51.2562 28.6569 51.2851 28.5287 51.3129 28.4002C51.3406 28.2718 51.3673 28.1431 51.3928 28.0141C51.4182 27.8852 51.4425 27.756 51.4657 27.6267C51.4889 27.4973 51.5109 27.3677 51.5318 27.2379C51.5526 27.1082 51.5723 26.9782 51.5909 26.8481C51.6094 26.718 51.6268 26.5877 51.643 26.4573C51.6592 26.3269 51.6743 26.1963 51.6881 26.0656C51.702 25.9349 51.7147 25.8041 51.7263 25.6732C51.7379 25.5422 51.7482 25.4112 51.7574 25.2801C51.7667 25.149 51.7747 25.0178 51.7816 24.8866C51.7884 24.7553 51.7941 24.624 51.7986 24.4927C51.8032 24.3613 51.8065 24.2299 51.8087 24.0985C51.8109 23.9671 51.8119 23.8357 51.8118 23.7042C51.8116 23.5728 51.8103 23.4414 51.8078 23.31C51.8053 23.1786 51.8016 23.0472 51.7967 22.9158C51.7919 22.7845 51.7858 22.6532 51.7786 22.522C51.7296 21.6232 51.6615 20.7303 51.493 19.8452C50.6458 15.3957 48.4504 11.1264 45.2009 7.95322C44.0975 6.87572 42.8819 5.94816 41.6095 5.08111C42.0888 4.22843 42.5493 3.36661 43.0348 2.51685Z" fill="#FEFEFE"/>
<path d="M37.6786 14.8091C38.3156 15.145 38.9608 15.4698 39.5718 15.8518C39.6802 15.9143 39.7998 15.963 39.9048 16.0288C40.3802 16.1761 40.8516 16.4536 41.2857 16.6955C41.834 16.8791 42.3615 17.2233 42.8859 17.4719C44.2213 18.1051 45.568 18.747 46.9467 19.2801C46.8197 20.1549 46.6893 21.0295 46.4818 21.8895C44.8441 28.6761 40.6096 34.9273 35.0255 39.0936C32.8462 40.7195 30.2969 42.1403 27.6763 42.8935C27.6182 42.6336 27.5959 42.3859 27.66 42.124C27.7822 41.6244 28.0813 41.1803 28.2488 40.6932C28.4208 40.193 28.519 39.6704 28.6728 39.1649C28.7917 38.7743 28.9765 38.4059 29.105 38.0181C29.1919 37.756 29.2085 37.4558 29.3392 37.212L29.3437 37.1346C29.4713 36.9285 29.5601 36.7406 29.7228 36.5551C30.2159 35.9932 30.919 35.6827 31.373 35.0738C32.0295 34.1933 31.847 33.4077 31.7169 32.4038C31.6228 31.6785 32.1968 31.5923 32.5512 31.1124C32.6117 31.0305 32.647 30.9431 32.6275 30.839C32.6254 30.8283 32.623 30.8175 32.62 30.807C32.5213 30.4595 32.0168 30.2813 31.7818 30.0319C31.5286 29.763 31.3832 29.396 31.0554 29.2013C30.6463 28.9584 30.1654 28.9323 29.7375 28.6537C31.008 26.7123 32.2053 24.7013 33.376 22.6982C33.6949 22.1522 34.0084 21.6031 34.3166 21.051C34.5015 20.722 34.6757 20.3788 34.884 20.0642C35.0528 19.7321 35.2396 19.4068 35.4158 19.0784C35.7133 18.4871 36.0308 17.8968 36.3602 17.3226C36.786 16.4776 37.2255 15.6398 37.6786 14.8091Z" fill="#5576B9"/>
<path d="M35.4158 19.0784C35.569 19.1527 35.8364 19.3233 35.8929 19.4929C35.9157 19.5611 35.9128 19.6186 35.883 19.6841C35.8206 19.8216 35.6247 19.9089 35.489 19.9464C35.2975 19.9993 35.0809 20.039 34.884 20.0642C35.0528 19.7321 35.2396 19.4068 35.4158 19.0784Z" fill="#FEFEFE"/>
<path d="M39.9049 16.0288C40.3803 16.1761 40.8517 16.4536 41.2858 16.6955C40.9597 16.7926 40.5558 16.818 40.2177 16.7804C39.9987 16.756 39.555 16.6377 39.4341 16.4311C39.4025 16.3769 39.3947 16.3341 39.4243 16.277C39.5023 16.1272 39.7537 16.0565 39.9049 16.0288Z" fill="#FEFEFE"/>
<path d="M37.6786 14.8091C38.3156 15.145 38.9609 15.4698 39.5718 15.8518C39.4814 15.9338 39.3976 16.0136 39.3165 16.1051C39.0392 16.418 38.5638 16.5355 38.5847 17.0066C38.5989 17.3243 38.7328 17.6654 38.5036 17.943C38.3587 18.1183 38.1454 18.214 37.9352 18.2848C37.731 17.8328 37.4749 17.5902 37.006 17.4168C36.7819 17.334 36.599 17.2798 36.3602 17.3226C36.786 16.4776 37.2255 15.6398 37.6786 14.8091Z" fill="#FEFEFE"/>
<path d="M16.6115 6.61024C16.971 6.28168 17.404 6.00333 17.8077 5.73183C18.1711 5.48376 18.5411 5.24601 18.9177 5.01858C19.2943 4.79115 19.677 4.57439 20.0657 4.3683C20.4545 4.16221 20.8486 3.96712 21.2482 3.78301C21.6478 3.5989 22.0522 3.42608 22.4615 3.26453C22.7313 3.72561 23.0815 4.14858 23.408 4.57097C23.7852 5.05129 24.1739 5.52218 24.574 5.98364C24.9741 6.44508 25.3851 6.89658 25.8071 7.33812C26.2291 7.77966 26.6616 8.2107 27.1045 8.63125C27.5474 9.05183 28.0003 9.46141 28.463 9.85999C28.8495 10.196 29.2803 10.4765 29.6665 10.8155C29.7463 10.8536 29.7544 10.8742 29.8368 10.846C29.8973 10.7037 30.1668 10.5323 30.3123 10.4762C30.4896 10.4078 30.6896 10.3806 30.8676 10.4611C30.9968 10.5194 31.0916 10.6276 31.1384 10.7606C31.2321 11.0266 31.1245 11.2941 31.0408 11.547C31.1895 11.6822 31.5871 12.0477 31.7874 12.0627C31.8698 12.0688 31.9306 12.0338 31.9811 11.9721C32.1612 11.7524 32.1675 11.3853 32.3836 11.1902C34.0313 12.4941 35.7675 13.7583 37.6162 14.7639C36.867 16.1147 36.1686 17.4961 35.427 18.8523C35.2405 19.1933 35.0865 19.6462 34.8342 19.9399C34.4633 20.6657 34.0415 21.372 33.6371 22.0797C32.3622 24.2708 31.0487 26.4384 29.6965 28.5826L25.6157 35.0576C24.4191 34.3029 23.2239 33.5493 22.0636 32.7392C21.8288 32.5752 20.6954 31.7312 20.5696 31.6952C20.571 31.7522 20.5946 31.7661 20.634 31.8044C20.9234 32.0866 21.3363 32.3161 21.6708 32.5496C22.4787 33.1202 23.2996 33.6715 24.1334 34.2034C24.6059 34.5077 25.113 34.7921 25.5663 35.1215C24.4786 36.8629 23.3794 38.5972 22.2688 40.3242C21.8268 41.0216 21.3355 41.715 20.9362 42.4367L20.9511 42.4742C21.2039 42.2148 21.3947 41.8452 21.589 41.5377L22.5079 40.0792C23.5407 38.4317 24.5809 36.7796 25.6462 35.1532C26.4195 35.6244 27.2151 36.0604 28.006 36.5012C28.436 36.7409 28.8842 37.0281 29.3392 37.212C29.2085 37.4558 29.1919 37.7559 29.105 38.0181C28.9765 38.4059 28.7917 38.7742 28.6728 39.1649C28.519 39.6704 28.4208 40.1929 28.2488 40.6932C28.0813 41.1803 27.7822 41.6244 27.66 42.1239C27.5959 42.3859 27.6182 42.6336 27.6763 42.8934C26.5934 43.1989 25.504 43.3794 24.3756 43.3666C24.0855 43.3653 23.796 43.3506 23.5073 43.3223C23.2185 43.294 22.9317 43.2523 22.6469 43.1972C22.537 43.1766 22.367 43.1187 22.2651 43.1668L22.2715 43.201C22.632 43.3158 23.0148 43.3571 23.3901 43.3951C23.5721 43.4142 23.7545 43.4286 23.9373 43.4382C24.1201 43.4479 24.303 43.4528 24.4861 43.4529C24.6691 43.453 24.852 43.4483 25.0348 43.4389C25.2176 43.4295 25.4001 43.4153 25.5821 43.3964C25.7642 43.3774 25.9456 43.3538 26.1265 43.3254C26.3073 43.297 26.4872 43.2639 26.6663 43.2261C26.8455 43.1884 27.0235 43.1459 27.2003 43.0989C27.3772 43.0518 27.5527 43.0002 27.727 42.944C27.8316 43.0151 27.9422 43.0683 28.0595 43.1148C29.4283 43.6576 31.5088 42.8221 32.6855 42.0964C33.135 41.8192 33.5361 41.4578 34.0041 41.2114C34.4725 40.9648 34.9972 40.9102 35.4755 40.6992C36.1029 41.0013 36.6456 41.4342 37.247 41.7753C37.7068 42.0349 38.1393 42.3412 38.6008 42.5967C38.1558 42.7381 36.5913 43.2903 36.2809 43.5203C37.0733 43.3244 37.8006 42.8631 38.5869 42.6645L38.6051 42.6466C38.7308 42.6509 39.475 43.1202 39.666 43.2142C36.0537 45.0495 31.8853 45.8311 27.854 45.5929C22.5468 45.2792 17.5273 42.602 14.019 38.6487C13.8954 38.5109 13.7735 38.3717 13.6533 38.2309C13.5332 38.0902 13.4148 37.948 13.2981 37.8043C13.1815 37.6606 13.0667 37.5155 12.9536 37.369C12.8405 37.2225 12.7293 37.0746 12.62 36.9253C12.5105 36.776 12.403 36.6254 12.2973 36.4735C12.1917 36.3215 12.0879 36.1683 11.986 36.0138C11.8841 35.8593 11.7842 35.7036 11.6862 35.5466C11.5882 35.3896 11.4921 35.2315 11.398 35.0721C11.3039 34.9128 11.2117 34.7523 11.1216 34.5907C11.0315 34.4291 10.9433 34.2663 10.8572 34.1025C10.7711 33.9387 10.687 33.7739 10.605 33.608C10.5229 33.4421 10.443 33.2752 10.3651 33.1074C10.2872 32.9395 10.2113 32.7707 10.1376 32.6009C10.0638 32.4312 9.9922 32.2606 9.9227 32.0891C9.85316 31.9176 9.78576 31.7452 9.72051 31.572C9.65526 31.3988 9.59216 31.2249 9.5312 31.0501C9.47024 30.8754 9.41147 30.7 9.35489 30.5237C9.29826 30.3475 9.24383 30.1707 9.19158 29.9931C9.13933 29.8156 9.0893 29.6375 9.04151 29.4587C8.99368 29.2799 8.94806 29.1005 8.90464 28.9206C8.86126 28.7407 8.8201 28.5603 8.78114 28.3794C8.74222 28.1985 8.70553 28.0171 8.67108 27.8352C8.63662 27.6535 8.60443 27.4712 8.57451 27.2886C8.54455 27.1059 8.51687 26.923 8.49145 26.7397C8.46603 26.5563 8.44289 26.3727 8.42201 26.1889C8.40114 26.005 8.38255 25.8209 8.36626 25.6366C8.34993 25.4522 8.33589 25.2677 8.32414 25.083C8.31239 24.8983 8.30291 24.7135 8.2957 24.5286C8.28853 24.3436 8.28364 24.1587 8.28101 23.9736C8.27843 23.7886 8.27812 23.6035 8.28008 23.4184C8.28203 23.2334 8.28628 23.0484 8.29283 22.8634C8.29937 22.6785 8.3082 22.4937 8.31933 22.3089C9.73945 23.6722 11.1036 25.1147 12.764 26.1964L12.7772 26.1115C11.7892 25.5119 10.4963 24.3525 9.6702 23.5369C9.23589 23.1082 8.81989 22.6229 8.3437 22.2412C8.35151 21.5771 8.45439 20.9022 8.56458 20.2484C9.27708 16.0209 10.9891 12.4891 13.8051 9.26637C14.6381 8.31312 15.5775 7.34618 16.6115 6.61024Z" fill="#FEFEFE"/>
<path d="M37.247 41.7753C37.7069 42.0349 38.1394 42.3412 38.6009 42.5966C38.1558 42.738 36.5913 43.2903 36.281 43.5203C37.0733 43.3244 37.8006 42.863 38.587 42.6645C38.4554 42.8191 38.3293 42.939 38.1514 43.0415C37.6837 43.311 36.35 43.716 35.817 43.757C35.8081 43.7577 35.7991 43.7581 35.7903 43.7586C35.6945 43.8002 35.5477 43.8048 35.4423 43.8315C34.9736 43.95 34.5108 44.0726 34.0348 44.1608C33.6282 44.2361 31.0361 44.7336 30.8275 44.59C30.8978 44.4975 31.5858 44.469 31.7653 44.4481C33.0318 44.3007 34.36 44.0816 35.5799 43.7044C35.4888 43.5755 35.3968 43.4411 35.3283 43.2986C35.2125 43.0577 35.1063 42.7279 35.2088 42.465C35.5068 41.7006 36.683 42.0512 37.1932 41.8031C37.2113 41.7943 37.2291 41.7846 37.247 41.7753Z" fill="#5576B9"/>
<path d="M28.6523 10.3705L28.6618 10.4234L28.5396 10.5662C27.2301 11.8072 25.9408 13.079 24.782 14.4645C24.3541 14.9842 23.9374 15.5127 23.532 16.05C23.3405 16.3005 23.1578 16.5876 22.9435 16.8175C23.2995 17.2108 23.783 17.5494 24.1934 17.8867C25.5042 18.9644 26.8428 19.9619 28.2382 20.9273C28.7531 21.2835 29.2693 21.6747 29.8085 21.9919C30.3055 21.3097 31.1351 20.857 31.9677 20.7215C32.2703 20.6722 32.5825 20.739 32.8802 20.6802C33.2322 20.6106 33.5786 20.4072 33.9076 20.2664C34.2093 20.1372 34.5206 20.0357 34.8342 19.9399C34.4633 20.6657 34.0415 21.372 33.6371 22.0797C32.3623 24.2708 31.0487 26.4384 29.6965 28.5826C28.917 28.0419 28.405 27.3084 28.1614 26.3849C28.1347 26.2851 28.1125 26.1843 28.0948 26.0824C28.0772 25.9806 28.0641 25.8783 28.0557 25.7753C28.0473 25.6723 28.0435 25.5691 28.0443 25.4658C28.0452 25.3625 28.0506 25.2594 28.0608 25.1566C28.1866 23.8887 29.1625 23.1471 29.7618 22.1074C28.8695 21.3866 27.8568 20.7721 26.9188 20.1087C25.5321 19.1279 24.1668 18.0444 22.9045 16.905C22.234 17.92 21.5617 18.9192 20.9256 19.9582C20.6248 20.3945 20.4205 20.9004 20.1785 21.37C18.6637 24.3099 17.5813 27.3722 17.0392 30.6408C16.9004 31.4775 16.761 32.3544 16.7658 33.2049C16.7095 35.9161 17.0425 38.9784 19.0116 41.032C19.1244 41.1497 19.226 41.26 19.3055 41.4036L19.2829 41.4113C18.9236 41.1013 18.5842 40.7282 18.3187 40.3342C18.2817 40.2791 18.2432 40.2256 18.2028 40.1729C18.0962 40.0342 18.0166 39.8538 17.9333 39.6997C17.4677 38.8379 17.2582 38.123 17.0055 37.1901C16.6663 35.9381 16.6383 34.5319 16.6828 33.2432C16.715 32.735 16.7345 32.2307 16.7947 31.7245C17.2035 28.2836 18.3377 24.8627 19.8845 21.7732C20.1956 21.1517 20.4968 20.5214 20.8564 19.926C21.4895 18.8738 22.1592 17.8577 22.8561 16.847C22.0192 16.1672 21.2429 15.3709 20.4818 14.6082C19.927 14.0617 19.3929 13.4955 18.8798 12.9096C18.6481 12.6494 18.4011 12.392 18.1954 12.1107L18.2379 12.059C18.5362 12.4732 18.942 12.8595 19.2903 13.2343C20.4405 14.4718 21.6387 15.637 22.8803 16.7826C23.5189 15.9757 24.112 15.1406 24.7736 14.3494C25.638 13.3158 26.5951 12.3456 27.5445 11.3906C27.8325 11.1009 28.3053 10.5588 28.6523 10.3705Z" fill="#5576B9"/>
<path d="M20.9257 19.9583C21.0696 20.3071 20.9401 20.8874 21.0967 21.3096C21.3243 21.9233 21.9337 22.4348 22.0599 23.0746C22.1454 23.5081 21.8282 23.9003 22.0279 24.3409C22.2045 24.7305 22.5156 25.0546 22.7833 25.383C23.4064 26.1469 24.5121 27.4293 24.5584 28.4421C24.5634 28.5508 24.5546 28.6677 24.516 28.7704C24.4314 28.9954 24.2702 29.1416 24.0529 29.2343C23.4182 29.505 21.9621 29.4393 21.6645 30.1246C21.442 30.637 21.5499 31.1999 20.9286 31.4611C19.9557 31.8699 18.9015 30.9746 18.0677 31.4918C18.0617 31.5024 18.0556 31.5129 18.0497 31.5236C17.9502 31.7055 17.8886 31.9009 17.8185 32.0953C17.6112 32.6696 17.2801 32.9013 16.7659 33.2049C16.7611 32.3545 16.9005 31.4776 17.0392 30.6409C17.5814 27.3723 18.6638 24.3099 20.1786 21.3701C20.4206 20.9004 20.6249 20.3946 20.9257 19.9583Z" fill="#F16F6E"/>
<path d="M29.8369 10.846C29.8973 10.7038 30.1668 10.5323 30.3124 10.4762C30.4896 10.4078 30.6897 10.3807 30.8677 10.4611C30.9968 10.5195 31.0916 10.6277 31.1384 10.7607C31.2322 11.0266 31.1245 11.2941 31.0409 11.547C31.1895 11.6822 31.5872 12.0478 31.7874 12.0627C31.8699 12.0688 31.9307 12.0338 31.9812 11.9722C32.1612 11.7524 32.1675 11.3853 32.3836 11.1903C34.0313 12.4941 35.7675 13.7583 37.6162 14.7639C36.867 16.1147 36.1686 17.4961 35.427 18.8523C35.2405 19.1933 35.0865 19.6462 34.8342 19.94C34.5206 20.0357 34.2093 20.1372 33.9076 20.2664C33.5787 20.4073 33.2322 20.6107 32.8802 20.6802C32.5825 20.7391 32.2704 20.6723 31.9677 20.7216C31.1351 20.8571 30.3055 21.3098 29.8085 21.992C29.2693 21.6748 28.7531 21.2836 28.2382 20.9273C26.8428 19.9619 25.5042 18.9645 24.1934 17.8868C23.783 17.5494 23.2995 17.2108 22.9435 16.8175C23.1579 16.5877 23.3405 16.3006 23.532 16.0501C23.9374 15.5128 24.3541 14.9843 24.782 14.4646C25.9409 13.0791 27.2301 11.8072 28.5396 10.5662C28.6947 10.798 28.8172 10.8939 29.0727 10.9964C29.2705 10.9358 29.4679 10.873 29.6665 10.8155C29.7463 10.8536 29.7544 10.8742 29.8369 10.846Z" fill="#FEFEFE"/>
<path d="M16.6116 6.61025C16.971 6.28168 17.4041 6.00333 17.8078 5.73183C18.1711 5.48376 18.5411 5.24601 18.9178 5.01858C19.2944 4.79115 19.677 4.57439 20.0658 4.3683C20.4545 4.16221 20.8487 3.96712 21.2483 3.78301C21.6478 3.5989 22.0523 3.42608 22.4615 3.26453C22.7314 3.72561 23.0815 4.14858 23.408 4.57097C23.7853 5.05129 24.1739 5.52218 24.5741 5.98364C24.9741 6.44509 25.3852 6.89658 25.8072 7.33812C26.2292 7.77966 26.6616 8.2107 27.1046 8.63125C27.5475 9.05183 28.0003 9.46141 28.4631 9.86C28.8495 10.196 29.2803 10.4765 29.6666 10.8155C29.4679 10.8729 29.2705 10.9357 29.0727 10.9964C28.8173 10.8939 28.6948 10.7979 28.5396 10.5662L28.6618 10.4234L28.6524 10.3705C28.3054 10.5588 27.8326 11.1009 27.5445 11.3906C26.5951 12.3456 25.638 13.3158 24.7736 14.3494C24.112 15.1406 23.5189 15.9757 22.8804 16.7826C21.6388 15.637 20.4405 14.4718 19.2904 13.2343C18.9421 12.8595 18.5363 12.4732 18.2379 12.0591L18.1954 12.1107C18.4011 12.392 18.6481 12.6494 18.8798 12.9096C19.393 13.4955 19.927 14.0617 20.4819 14.6082C21.2429 15.3709 22.0193 16.1672 22.8561 16.8471C22.1592 17.8577 21.4895 18.8738 20.8564 19.9261C20.4969 20.5214 20.1956 21.1517 19.8845 21.7732C18.3378 24.8627 17.2035 28.2836 16.7947 31.7246C16.7346 32.2307 16.7151 32.735 16.6829 33.2432C16.4688 33.3073 16.1513 33.3651 15.9731 33.497C15.8078 33.6195 15.8309 33.9171 15.6204 33.9893C15.3568 34.0797 15.0977 33.8603 14.8669 33.7671C14.7655 33.7261 14.6073 33.6935 14.5073 33.7594C14.3124 33.8881 14.4544 34.2528 14.3658 34.4489C14.264 34.6741 13.6638 34.6069 13.4404 34.6806C12.722 34.9176 13.1122 35.5962 12.8608 36.0929C12.8221 36.1189 12.8083 36.1457 12.7591 36.1313C12.3873 36.0225 11.8028 35.0246 11.6391 34.6879C10.698 32.7531 10.9171 30.8356 11.6812 28.9019C11.9044 28.337 12.1854 27.7964 12.4105 27.2329C12.5456 26.8949 12.6466 26.5411 12.764 26.1964L12.7773 26.1115C11.7893 25.5119 10.4963 24.3525 9.67025 23.5369C9.23594 23.1082 8.81994 22.6229 8.34375 22.2412C8.35156 21.5771 8.45444 20.9022 8.56462 20.2484C9.27712 16.0209 10.9892 12.4891 13.8052 9.26637C14.6382 8.31312 15.5776 7.34618 16.6116 6.61025Z" fill="#F16F6E"/>
<path d="M16.3593 13.4667C16.7929 12.5312 17.3936 12.7483 18.0594 12.1999C18.1063 12.1613 18.1374 12.132 18.1954 12.1107C18.4011 12.392 18.6481 12.6493 18.8798 12.9096C19.393 13.4955 19.927 14.0617 20.4819 14.6082C21.2429 15.3709 22.0193 16.1672 22.8561 16.847C22.1592 17.8577 21.4895 18.8738 20.8564 19.926C20.491 19.319 20.0944 19.2385 19.6762 18.768C19.2138 18.2477 19.0657 17.5812 18.4386 17.1946C17.8854 16.8537 17.0961 16.7933 16.6375 16.331C15.7327 15.419 17.0098 14.9407 16.991 14.3115C16.9813 13.9885 16.5743 13.6765 16.3593 13.4667Z" fill="#FEFEFE"/>
<path d="M16.076 10.8202C16.1475 10.5666 16.2686 10.3452 16.418 10.1297C16.8003 9.57815 17.2709 9.13078 17.9554 9.01759C18.1986 8.97734 18.5603 8.96972 18.7671 9.12578C18.9949 9.29765 19.1788 9.5339 19.3942 9.72184C19.5576 9.8644 19.9173 10.0602 20.0169 10.2445C20.1074 10.4119 20.1064 10.6426 20.0901 10.8265C20.0699 11.0537 19.9984 11.3448 20.0485 11.5671C20.0676 11.6517 20.0879 11.6778 20.1607 11.7208C20.7384 11.6705 20.9484 10.8262 21.4045 10.5636C21.9599 10.2438 22.4258 10.831 22.9674 10.7549C23.3044 10.7075 23.5919 10.4643 23.9377 10.4076C24.485 10.3178 25.1157 10.2763 25.6701 10.2687C26.0717 10.2632 26.4835 10.2863 26.8827 10.2373C27.2701 10.1897 28.0817 9.89265 28.4313 10.0147C28.5455 10.0547 28.6095 10.267 28.6524 10.3705C28.3054 10.5588 27.8326 11.1009 27.5445 11.3906C26.5952 12.3456 25.638 13.3158 24.7737 14.3494C24.112 15.1406 23.519 15.9757 22.8804 16.7826C21.6388 15.637 20.4405 14.4718 19.2904 13.2343C18.9421 12.8595 18.5363 12.4732 18.238 12.059L18.2392 11.9732L18.1584 11.9341C17.7187 11.1021 16.6263 11.6177 16.076 10.8202Z" fill="#FEFEFE"/>
<path d="M16.6116 6.61023C16.5818 6.83554 15.2367 9.00148 15.0237 9.27867C14.807 9.56054 14.5462 9.80754 14.3148 10.0774C13.7644 10.7194 13.2366 11.3737 12.7634 12.0751C12.0014 13.2045 11.3637 14.3585 10.8097 15.6026C10.6622 15.9338 10.3223 16.5684 10.3282 16.9198L10.3734 16.9082L10.3823 16.879C10.4841 16.5552 10.642 16.2523 10.769 15.9384C10.8727 15.6843 10.9815 15.4324 11.0954 15.1827C11.2092 14.933 11.3281 14.6857 11.452 14.4409C11.5759 14.1959 11.7047 13.9536 11.8384 13.714C11.972 13.4743 12.1105 13.2374 12.2538 13.0034C12.3971 12.7693 12.545 12.5382 12.6976 12.3101C12.8503 12.082 13.0074 11.8571 13.1691 11.6354C13.3308 11.4136 13.497 11.1952 13.6675 10.9802C13.838 10.7652 14.0129 10.5538 14.192 10.3458C14.4593 10.0317 14.7266 9.70473 15.0181 9.4131C14.8706 9.82948 14.7676 10.2434 14.7879 10.6883C14.8118 11.2128 15.0429 11.7055 15.1754 12.2077C15.2827 12.6145 15.4341 13.7461 15.4483 14.1467C15.4751 14.9034 15.0763 15.4877 15.4256 16.2448L15.4417 16.279C15.5687 16.543 16.0259 17.135 15.9609 17.4101C15.8672 17.8072 14.4105 18.4206 14.0272 18.6714C13.6511 18.9174 13.3083 19.2047 13.0433 19.5704C12.6361 20.1321 12.4066 20.8875 12.2994 21.5663C12.1939 22.2352 12.1868 22.9817 12.4491 23.6181C12.5498 23.8624 12.6913 24.092 12.8053 24.3306C13.1056 24.9589 13.0097 25.4869 12.7773 26.1115C11.7893 25.5119 10.4963 24.3525 9.67025 23.5369C9.23594 23.1082 8.81994 22.6229 8.34375 22.2412C8.35156 21.577 8.45444 20.9022 8.56462 20.2484C9.27712 16.0209 10.9892 12.489 13.8052 9.26635C14.6382 8.3131 15.5776 7.34617 16.6116 6.61023Z" fill="#FEFEFE"/>
</svg>
